/* XPM */
static char *result[] = {
/* columns rows colors chars-per-pixel */
"50 50 188 2 ",
"   c #010101",
".  c #0C0606",
"X  c #060708",
"o  c #0B0B0B",
"O  c #130101",
"+  c #160C0D",
"@  c #190E0E",
"#  c #1A120E",
"$  c #180E11",
"%  c #151515",
"&  c #1A1414",
"*  c #1A1816",
"=  c #151619",
"-  c #1A1A1A",
";  c #220101",
":  c #340303",
">  c #211616",
",  c #2D1811",
"<  c #2C1813",
"1  c #231A19",
"2  c #281E1E",
"3  c #36260F",
"4  c #3A2A0F",
"5  c #27211A",
"6  c #3B2316",
"7  c #1F1F20",
"8  c #232222",
"9  c #2C2422",
"0  c #292827",
"q  c #2D2C2C",
"w  c #362827",
"e  c #332E2E",
"r  c #32312E",
"t  c #2E2F30",
"y  c #323232",
"u  c #3A3433",
"i  c #3B3936",
"p  c #3C3B3B",
"a  c #4F0202",
"s  c #620101",
"d  c #6B0101",
"f  c #660808",
"g  c #7E0000",
"h  c #63100F",
"j  c #402F0F",
"k  c #402E2E",
"l  c #463A2E",
"z  c #413633",
"x  c #473836",
"c  c #433C3C",
"v  c #633E23",
"b  c #42403E",
"n  c #48403F",
"m  c #574B3C",
"M  c #5B503F",
"N  c #6C4C36",
"B  c #424141",
"V  c #4B4443",
"C  c #4A4845",
"Z  c #4D4C4C",
"A  c #524D45",
"S  c #534D4A",
"D  c #59554E",
"F  c #535151",
"G  c #5B5552",
"H  c #5D5A56",
"J  c #5D5C5B",
"K  c #645343",
"L  c #615C57",
"P  c #625E5A",
"I  c #77634E",
"U  c #65615D",
"Y  c #69645E",
"T  c #656361",
"R  c #696662",
"E  c #6E6A65",
"W  c #6E6C69",
"Q  c #736661",
"!  c #726E6A",
"~  c #767067",
"^  c #74716D",
"/  c #7A756D",
"(  c #757472",
")  c #797673",
"_  c #7C7976",
"`  c #7D7C7A",
"'  c #860000",
"]  c #980303",
"[  c #AC0101",
"{  c #B40000",
"}  c #B90505",
"|  c #C40000",
" . c #CD0000",
".. c #D30000",
"X. c #D90000",
"o. c #896F16",
"O. c #907414",
"+. c #8C5529",
"@. c #8F562A",
"#. c #8D5A2E",
"$. c #AB6730",
"%. c #826E58",
"&. c #937A61",
"*. c #837E76",
"=. c #817F7C",
"-. c #DDB114",
";. c #E2B514",
":. c #EA8D3F",
">. c #EEC115",
",. c #F1C715",
"<. c #FFD315",
"1. c #9E866C",
"2. c #878177",
"3. c #83817E",
"4. c #8A857D",
"5. c #8D887E",
"6. c #AC9073",
"7. c #B6997B",
"8. c #FE9B44",
"9. c #C1A07F",
"0. c #858483",
"q. c #888785",
"w. c #8B8986",
"e. c #878788",
"r. c #888788",
"t. c #8C8B8B",
"y. c #928E86",
"u. c #918F8C",
"i. c #969087",
"p. c #93918E",
"a. c #99948C",
"s. c #9E998F",
"d. c #8E8E91",
"f. c #908F90",
"g. c #8F9092",
"h. c #949393",
"j. c #999794",
"k. c #9C9995",
"l. c #969699",
"z. c #97989B",
"x. c #9C9B9A",
"c. c #A3968F",
"v. c #A29D96",
"b. c #A19E9A",
"n. c #A6A097",
"m. c #A8A195",
"M. c #A5A29C",
"N. c #A9A59D",
"B. c #AEA89F",
"V. c #9C9DA0",
"C. c #A4A3A2",
"Z. c #AAA7A1",
"A. c #ADAAA4",
"S. c #A6A7A9",
"D. c #A7A8A9",
"F. c #AEADAB",
"G. c #B1ADA6",
"H. c #B1AEA9",
"J. c #B6B1A7",
"K. c #B5B2AB",
"L. c #BAB5AD",
"P. c #BDB8AF",
"I. c #AFB0B2",
"U. c #B5B5B4",
"Y. c #B9B6B2",
"T. c #BCB9B3",
"R. c gray",
"E. c #C4A482",
"W. c #CEAD8B",
"Q. c #D2B18F",
"!. c #C1B4AB",
"~. c #C2BDB5",
"^. c #E3C39C",
"/. c #C3C1BC",
"(. c #CCC7B9",
"). c #D1C3B9",
"_. c #EDCBA1",
"`. c #FFDBAD",
"'. c #FFE0B1",
"]. c #C9C9C8",
"[. c #D8D7C7",
"{. c #D4D4D4",
"}. c #DBDBDB",
"|. c #E9E9D7",
" X c #EBEBDA",
".X c #F1F1DE",
"XX c #F1F1E0",
"oX c #FFFFEC",
/* pixels */
"5.3.q.) _ 3.w.Z.K.k.p.w.k.p.u.k.L.a.t.e.t.g.h.g.G.M.w.w.w.t.g.g.M.~.N.t.w.q.0.h.z.{./.h.p.w.h.w.j.C.",
"4.3.3.3.*.q.` b.N.e.^ ) t.w.t.t.K.h.t.` t.t.t.g.M.p.^ 0.w.0.=.=.C.~.h.r.0.=.r.t.q.]./.h.h.w.0.w.w.z.",
"k.=.` _ _ =.) C.A.w.0.0.w.w.u.h.K.p.3.0.e.t.` t.N.p.W ) e.` ` ` l.Y.p.0.0.W ) 0.0.L.G.q.w.w.w.t.p.b.",
"a.*.) _ ` ` 0.A.K.0.t.` 0.3.=.g.L.w.0.3.0.e.` 0.b.k.3.=.` W 3.0.j.~.p.w.=.` 0.t.q.G.M.w.h.a.0.h.h.b.",
"y.=.=._ q.=._ M.J.e.e.0.3.) q.t.K.u.=.^ ) ` ` 3.j.p.0.` ` =.0.t.l.~.w.` 0.t.0.0.0.H.A.w.t.t.w.i.w.k.",
"w._ 0.3.=.) ( j.J.3.e.t.e.3.0.w.K.p.0.0.0.` 0.3.j.h.e.3.3.0.` e.j.~.q.0.t.` 0.=.0.G.N.w.l.a.k.h.t.k.",
"w.3.w.w.0.` 3.C.G.h.g.4.0.` 0.z.K.p.) q.t.t.u.t.M.j.3.t.3.` e.t.n./.t.` 0.r.` e.t.G.K.j.k.x.k.t.p.x.",
"*.Y P L H L L *.k.R P L H H U / m.4.~ W Y E E E i.y.L U G D U U _ L.) P L ! ! W ! n.u.Y Y Y L R E 4.",
"a.3.3.*._ _ 3.n.n.E E ^ ( W W R w.! Y J G H P H 2._ U J ) ^ ! ` w.P.*.` =.=.` ) ) N.k._ _ ( ! ` ` i.",
"m.i.b.b.p.z.p.J.J.3.3.0.w.e.=.- X X X X X . X X X X X - ) 3.3.3.u.~.w.u.h.h.t.t.q.G.Z.w.q.r.w.h.h.x.",
"b.u.y.j.t.k.h.Z.Z.w.0.` _ 0.` %                       % W ` e.0.l.T.u.t.0.w.q.t.0.M.b.` t.l.t.t.t.C.",
"b.h.u.0.p.p.z.K.A.0.0.0.H p p 8 - - - - - - - - - - - 8 p b b i C G.x.t.0.` S p Z n.C.q.t.t.t.h.0.x.",
"v.j.p.w.h.k.k.K.G.3.3.0.b   . q y y y y e y y y y y y q         . k.p.q.0.0.7   8 F.A.u.p.t.f.t.h.A.",
"b.k.p.h.h.k.l.F.N.3._ ` c O O w k k k z u z k k u k k w O O O O + w.t._ ` ) q % q C.k.0.0.h.h.h.t.x.",
"b.k.h.a.M.k.x.F.N.( = % f { { } } } } } } } } } } } } } { { { { [ < % % % % t.R.p.- % T w.d.0.u.h.C.",
"a.w.q.y.w._ 4.v.m.! X   d X......................... ........... .O         V.}.C.X   F 3.` =.0.t.D.",
"*.L E R U D R U L z a a d g g ' g g g g g g g g g g g g g g g g g x 0 %     V.}.C.X   c H G P P L w.",
"p._ t.e.3.3.0.y   ; | ..s                                       X a.i.T     x.}.C.    J h.0.d.d.k.C.",
"t._ _ / _ q.=.i   ; }  .s                 . X           .       X k.V.J   X x.{.V.X   H t.d.0.0.q.f.",
"t._ ` 3._ 0.0.0.3.G : : < 0 r 6.E.I     &.9.9.9.E.l   & 7.E.M     0 0 F C.V.F y B 3.( _ ` 0.t.d.f.k.",
"p.0.3.0.r.0.w.K.n.( X   - y V ^.'.1.  X E.'.`.`.`.m   5 _.'.%.        Z {.{.i   0 C.x.t.g.g.d.d.l.f.",
"k.w.3.3.r.q.t.t.) H % o - y p 7.Q.%.o + 1.W.W.W.W.m X 9 7.Q.K         Z {.{.i   8 C.j.w.h.g.d.d.f.x.",
"p.t.t.t.t.u.t.y   X q t y y y y i y y t y y i y y y y y u y -         Z {.{.i   8 x.k.d.d.t.d.z.k.b.",
"p.p.t.t.w.q.0.y   X y y y y y y y y y y y y y y y y y y y y -         Z }.{.i   8 n.A.C.u.l.C.V.b.I.",
"E D A A i * 7 h ' d & % 8 y y y y y y y y y y y y y y y y y -   X W 0.( F F p y c s.y.L L L R H T y.",
"y.4.4.) J     ' X.{     - y y y t y y y y y r y y y y y y y -   % U.}.d.    T e.0.N.u.` l.t.f.t.t.A.",
"b.q.q.t.T % % g } ] $ % 1 q q q q 0 q q 0 q q q q q q q q 0 %   % I.}.e.    R e.t.M.u.h.f.f.d.d.l.V.",
"e.q.w.p.0._ 3.z O > ( 3.p X X   X X X   X   X     X     X X     o U.}.e.    W d.p.k.t.l.f.S.d.d.f.I.",
"h.t.w.0.t.g.h.p   = =.r.b                                       o U.}.t.    T 0.t.b.u.t.r.z.V.V.t.S.",
"w.t.t.t.h.z.h.^ C b S G u = % % % % % % * = % = % * % % . .     X T ` T B B ( 0.w.n.l.d.d.l.d.0.0.b.",
"h.p.t.t.d.k.g.U.N.` * @ 8 y y y y y y y y y y y y y y q & @ .         t t.e.t.0.) b.h.d.e.d.d.e.f.S.",
"w.3.0.t.t.h.h.K.b.=.> $ 9 y y y y y y y y y y y y y y e @ @ .         t =._ t.q.0.b.p.z.l.l.l.d.z.S.",
"` _ _ _ ) ` 3.D w 9 q q e y t + X - y y y y y y y y y 0 .   . + +     X - - R ! ( M.5.) ) ) ) ` *.k.",
"^ R Y Y R ! Y i @ > q q q t q X   % y y t e y y y y y q     . & +           S R R a.*.! ! ! ! E ! r.",
"x.h.k.p.t.u.p.c + 2 R ! W ! U o   % y y y y y t y y t y i z 9 @ @ r y e t y r.C.j.Z.u.k.h.h.z.h.f.x.",
"p.t.t.0.0.h.h.V + z .XoXoXoX X8   % y y y y y y y y y C L.).Q O 1 j.k.h.f.b.b.x.z.H.p.q.r.0.u.0.r.k.",
"k.x.g.0.` w.f.c + i XXoXoXoX|.8   % y y y y y y y t y C !.).Q + > b.l.l.k.l.C.z.V.Y.u.0.w.` t.l.f.h.",
"w.g.g.e.` ( 0.c + i XXoXoXoX|.r + = 8 7 8 7 8 8 8 8 - i !.).Q + 1 v.b.V.l.l.I.b.h.G.b.h.h.f.t.h.w.l.",
"b.=.=.3.3.3.=.p + z XXoXoXoX Xi = = - - = * * - = - * y !.).Q + 1 v.V.x.V.x.f.h.l.T.k.f.l.u.q.l.f.z.",
"j.t.h.t.q.t.e.V 2 c (.[.[.[.(.r = - & & - * * * - = = e c.B.Q 2 e B.x.u.l.x.h.f.j.T.b.u.h.t.t.q.r.j.",
"k.t.q.t.p.f.h.k.y.E 9 1 2 0 8 & @ @ @ @ @ @ $ @ $ = = * > > F q.j.L.u.u.p.z.z.z.C.Y.Z.b.h.h.w.w.=.x.",
"_ E R Y Y P Y / 5.S $ + $ = = $ @ @ @ @ @ @ @ $ @ & = = + + e S E G.! P T U T T E M.=.G D S D A D *.",
"5.a.t.0.w.q.q.! G m o.O.O.O.o., @ w S S S H V $ @ v #.#.@.+.N C G B.b.l.3.r.g.l.t.Y.b.u.h.r.x.t.d.I.",
"y.h.q.q.r.) =.A + j ,.<.<.<.>.3 @ c q.l.f.k.^ $ @ $.8.8.8.8.+.+ > y.f.t.r.r.V.d.t.H.A.z.h.l.V.t.q.S.",
"f.w.0.r.h.3.3.V + j ;.>.>.>.-.3 @ n =.=.u.f.W @ @ $.:.:.8.:.N + > y.r.0.g.d.g.V.V.H.S.r.l.t.r.h.l.l.",
"w.3.=.t.k.j.0.V @ # 4 4 4 4 4 # $ V p.=.u.f.E $ @ < 6 6 6 6 , O > y.d.d.l.l.l.d.l.T.A.l.l.r.d.r.f.z.",
"j.q.( ) k.z.0.V @ @ + + + + + + $ n r.f.l.k.W $ $ + + + + @ + + & y.f.l.d.V.e.e.d.T.S.l.V.f.l.r.f.S.",
"j.0.` ` e.0.` Q V c c c c n b V V T 0.f.f.f.=.c S n u i i c x u u v.x.l.e.d.V.d.d.T.D.l.V.l.l.l.r.V.",
"k.` 0.t.p.t.l.H.N.h.t.t.q.i.k.M.G.j.p.t.t.z.x.h.Y.M.p.0._ 0.` 0.r.G.j.k.V.C.d.l.l.U.F.S.f.t.V.z.z.S.",
"2.P / ) ) =.q.x.B.3.^ *.=.3.2._ k.r.3.3.5.=.q.q.n.s._ / ! ^ ^ ^ w.G.w.q.=.3._ ` r.Z.h.q.0._ q.=.0.b."
};
