/* XPM */
static char *result[] = {
/* columns rows colors chars-per-pixel */
"50 50 184 2 ",
"   c #010101",
".  c #0C0404",
"X  c #070808",
"o  c #0C0B0B",
"O  c #130101",
"+  c #160C0D",
"@  c #190E0E",
"#  c #1A120E",
"$  c #170F11",
"%  c #151414",
"&  c #1A1515",
"*  c #1D1813",
"=  c #151619",
"-  c #1A1A1A",
";  c #220101",
":  c #340303",
">  c #211717",
",  c #2D1811",
"<  c #2C1813",
"1  c #231B1B",
"2  c #36260F",
"3  c #3A2A0F",
"4  c #24211D",
"5  c #3B2316",
"6  c #222222",
"7  c #2A2624",
"8  c #2C2C2C",
"9  c #372928",
"0  c #36302D",
"q  c #323232",
"w  c #3C3433",
"e  c #3A3836",
"r  c #3B3B3A",
"t  c #4F0202",
"y  c #620101",
"u  c #6B0101",
"i  c #660808",
"p  c #750000",
"a  c #7E0000",
"s  c #63100F",
"d  c #402E2E",
"f  c #463A2E",
"g  c #413633",
"h  c #403837",
"j  c #433C3B",
"k  c #633E23",
"l  c #43413E",
"z  c #49403E",
"x  c #574B3C",
"c  c #5B503F",
"v  c #6C4C36",
"b  c #474544",
"n  c #4B4443",
"m  c #4D4C4C",
"M  c #504542",
"N  c #534B45",
"B  c #524D4A",
"V  c #55514C",
"C  c #5A554E",
"Z  c #544F50",
"A  c #555353",
"S  c #5B5552",
"D  c #5D5A56",
"F  c #5C5B5A",
"G  c #645343",
"H  c #625C57",
"J  c #625E5A",
"K  c #77634E",
"L  c #65625D",
"P  c #69645E",
"I  c #666462",
"U  c #696663",
"Y  c #6E6A65",
"T  c #6D6B69",
"R  c #736661",
"E  c #716C66",
"W  c #726E6A",
"Q  c #767067",
"!  c #74716D",
"~  c #7A756D",
"^  c #726F71",
"/  c #757472",
"(  c #797673",
")  c #7C7976",
"_  c #787778",
"`  c #7D7C7A",
"'  c #860000",
"]  c #950000",
"[  c #AC0101",
"{  c #B40000",
"}  c #B90505",
"|  c #C40000",
" . c #CD0000",
".. c #D30000",
"X. c #D90000",
"o. c #896F16",
"O. c #907414",
"+. c #8C5529",
"@. c #8D5A2E",
"#. c #AB6730",
"$. c #826E58",
"%. c #937A61",
"&. c #837E76",
"*. c #817F7C",
"=. c #DDB114",
"-. c #E2B514",
";. c #EA8D3F",
":. c #EEC115",
">. c #F1C715",
",. c #FFD315",
"<. c #9E866C",
"1. c #83817E",
"2. c #8A857D",
"3. c #8D887E",
"4. c #AC9073",
"5. c #B6997B",
"6. c #FE9B44",
"7. c #C1A07F",
"8. c #858483",
"9. c #888785",
"0. c #8B8986",
"q. c #878788",
"w. c #888788",
"e. c #8C8B8B",
"r. c #928E85",
"t. c #918F8C",
"y. c #969087",
"u. c #93918E",
"i. c #99948C",
"p. c #9E998F",
"a. c #8E8E91",
"s. c #908F90",
"d. c #8F9092",
"f. c #949393",
"g. c #999794",
"h. c #9C9995",
"j. c #969699",
"k. c #97989B",
"l. c #9C9B9A",
"z. c #A29D96",
"x. c #A89C94",
"c. c #A19E9A",
"v. c #A6A097",
"b. c #A8A195",
"n. c #A5A39D",
"m. c #A9A59C",
"M. c #9C9DA0",
"N. c #A4A3A2",
"B. c #AAA7A1",
"V. c #ACAAA4",
"C. c #A6A7A9",
"Z. c #A7A8A9",
"A. c #AEADAB",
"S. c #B1ADA6",
"D. c #B1AEA9",
"F. c #B6B1A7",
"G. c #B5B2AB",
"H. c #B9B5AC",
"J. c #BDB9AF",
"K. c #AFB0B2",
"L. c #B4B4B3",
"P. c #B9B6B2",
"I. c #BDB9B3",
"U. c gray",
"Y. c #C4A482",
"T. c #CEAD8B",
"R. c #D0AF8D",
"E. c #D2B18F",
"W. c #C2B5AC",
"Q. c #C2BDB5",
"!. c #E3C39C",
"~. c #C3C1BC",
"^. c #CDCDBD",
"/. c #D1C3B9",
"(. c #EDCBA1",
"). c #FFDBAD",
"_. c #FFE0B1",
"`. c #C9C9C8",
"'. c #D5D5C5",
"]. c #D4D4D4",
"[. c #DBDBDB",
"{. c #EAEAD9",
"}. c #F1F1DE",
"|. c #FFFFED",
/* pixels */
"3.1.9.( ) 1.0.B.G.g.t.0.l.u.u.h.H.i.e.0.e.d.f.d.V.m.0.0.0.e.d.d.N.Q.n.e.0.0.8.f.l.].~.f.u.0.f.0.g.N.",
"2.1.1.*.&.9.` c.m.0./ ( w.0.e.w.G.f.e.` e.e.e.d.n.u./ 8.0.8.*.*.N.Q.f.w.8.*.w.e.9.`.~.f.f.0.8.0.0.g.",
"h.1.` ) ) *.( N.V.0.8.8.0.0.u.f.G.u.1.8.q.e.` e.n.u.T ( q.*.) ` f.I.u.8.8.T ( 8.8.H.S.8.0.0.0.e.u.l.",
"i.&.( ) ` ` 8.V.G.8.a.` 8.1.1.d.G.0.8.1.8.9.` 8.n.h.1.*.` Y 1.8.g.Q.u.0.*.` 8.e.9.S.n.0.f.i.8.f.f.n.",
"r.*.*.) 9.*.) n.F.0.w.8.*.( 0.e.G.u.1.! ( ) ` 1.g.u.8.` ` *.8.e.f.Q.0.` 8.e.8.8.8.D.V.0.e.e.0.y.0.l.",
"0.) 8.1.*.( / g.S.1.q.e.q.1.8.0.G.u.8.8.8.` 8.1.g.f.9.1.1.8.` 9.g.Q.0.8.e.` 8.8.8.S.m.w.j.i.h.f.e.g.",
"0.1.0.0.8.` 1.N.S.f.d.8.8.` 8.g.G.u.( 9.e.e.d.e.n.g.1.e.1.` q.e.n.~.0.` 8.q.` q.e.S.G.g.l.l.h.e.u.l.",
"&.P H H D H H &.h.U H H D D L ( b.2.Q Y P Y Y Y y.r.J J S S J I ) H.( L H T E T T m.r.P P P H U Y 2.",
"i.1.1.&.) ) 1.n.v.Y Y ! / T E U 0.E P F A D J D 1.) I L / T Q ` 0.J.&.) *.*.T F I m.h.) ) / E ) ` y.",
"v.y.c.c.e.l.u.F.F.1.1.8.0.9.*.- X X X X X X X X X X   - ) 1.1.1.u.I.0.u.f.f.7   6 B.B.0.w.w.w.f.f.l.",
"c.t.r.g.a.g.u.V.B.9.8.` ) 8.` %                       % T ` q.8.j.I.f.e.8.9.6   6 z.n.` e.f.e.s.w.N.",
"c.f.t.8.t.f.l.G.V.0.8.1.D r r 6 - - - - - - - - - - - 6 r r l r b S.l.T r e U _ U m b T f.e.e.s.w.l.",
"z.g.u.0.f.g.g.G.V.1.1.8.l   X 8 q q q q q q q q q q q 8 X       . l.u.D     N.[.N.X   A t.e.s.s.f.V.",
"c.h.u.f.f.l.j.A.m.1.) ` j O O 9 g d d d w g d d d d 0 9 O . O O + 0.t.m   X M.[.N.X   A 9.f.f.s.w.n.",
"c.h.f.i.n.g.l.A.m./ - % i { { } } } } } } } } } } } } } { { { { [ < % X     M.[.N.    F 0.a.8.f.f.N.",
"i.0.0.r.0.) 3.z.v.Q X   u X.....................................| ;         N.[.N.X   A *.` *.8.w.Z.",
"&.H Y U L C P L H g t t u a a a a a a a a a a a a a a a a a a a p O   - A A _ 8.T r q B D S H H H 0.",
"u.) e.q.` 1.8.e   ; | ..y                                             m [.].q   6 N.m.f.f.8.a.a.g.B.",
"w.) ) / ) 0.1.e   ; }  .y     X           X X           X             m ].].q   6 N.c.u.q.a.q.8.9.f.",
"u.) ` 1.) 8.8.8.1.S : : < 6 0 4.Y.K     %.7.7.7.Y.f   * 5.Y.c         m ].].e   6 B.n.8.` 8.e.s.s.g.",
"u.8.1.8.q.8.0.G.m.^ X   - q b !._.<.  X Y.).).).).c   4 (.).$.        m [.].e   6 N.c.w.a.a.a.s.f.s.",
"h.0.1.1.w.w.e.w.( D % o 1 q r 5.E.$.o o <.R.T.R.T.x X 4 7.R.G   X 8 q F M.M.l 6 r B.g.0.f.f.a.a.f.l.",
"u.w.e.e.e.t.e.q   o 8 q q q q q e q q q q e q q q q q q e q -   o K.].8.  X T j.w.c.l.a.a.e.a.k.j.c.",
"u.u.e.e.0.0.1.q   X 8 q q q q q q q q q q q q q q q q q q q -   % L.[.q.    ^ j.f.N.S.N.e.j.N.M.c.K.",
"Y C N N e - 4 s ' u & % 6 q q q q q q q q q q q q q q q q q -   o L.[.q.    b S H p.t.H H H I D I y.",
"r.3.1.) J     ' X.{ .   - q q q q q q q 8 q q q q q q q q q -   % L.[.e.    I q.8.m.u.` f.e.f.e.e.V.",
"n.9.9.e.I % % a { ] .   % 8 8 8 8 8 8 8 8 8 8 8 8 8 8 8 8 8 %   o l.U.` % % T e.e.v.t.f.f.a.a.a.f.M.",
"8.0.0.t.8.) 1.w O O + @ o   X   X     X   X X       X     X       % % r *.8.a.q.t.l.e.f.a.C.a.a.f.K.",
"f.w.0.8.e.d.f.r     + @ X                                             q a.e.q.8.w.c.t.e.e.k.M.M.e.C.",
"0.u.e.e.f.l.f.l . + 1 6 +     % % % = % % - % - % % % %               - m m _ 8.0.n.j.a.a.j.a.8.8.l.",
"f.u.e.e.d.l.d.n @ * q q %     8 q q q q q q q q q q q 8 X                   I 8.( c.f.s.w.a.a.w.s.C.",
"0.1.8.e.e.f.f.n @ > e r 6 X o 8 q q q q q q q q q q q 8 X X       X X X X X T 9.8.c.t.l.f.j.j.a.k.C.",
"*.) ) ) ( ` 1.z + 0 ^.'.'.^.I.6 X % q q q q q q q q q l x.x.G + @ ~ R I U I ) W ^ x.3.( ( ( ( ` ) h.",
"! U P P U T P e + g }.|.|.|.{.6   % q q q q q q q q q b W./.R @ > r.*.T I W T U P h.&.W W W W Y W e.",
"l.f.g.u.u.u.u.j + g }.|.|.|.{.6   % q q q q q 8 q q q b W.Q.R + > z.D.c.M.N.N.N.h.B.t.h.f.f.l.f.s.l.",
"u.a.e.8.8.f.d.z + f }.|.|.|.{.4   % q q q q q q q q q b W.Q.R + > g.l.s.f.M.c.l.g.D.s.9.w.8.t.8.w.j.",
"g.g.d.8.` 0.a.j + g }.|.|.|.{.4   % q q q q q q q q q b W./.R + 1 x.s.j.c.f.N.k.M.P.t.8.0.` e.f.s.g.",
"0.d.d.q.` / 8.` U H H H L L J - $ % 6 6 6 1 6 6 6 6 6 7 M M D ^ ) D.c.M.j.j.K.c.f.S.c.f.f.a.a.f.0.f.",
"n.*.*.1.1.*.*.d.s.E @ + $ % % - - - - = = - - - = - - & + + B k.N.Q.M.l.M.l.s.f.j.I.h.s.j.t.9.f.s.k.",
"g.e.f.e.9.a.9.8.9.I * # % - - = % - & - & - - * % - % - @ @ Z *.l.Q.j.s.j.M.j.s.g.I.c.t.f.e.e.w.w.h.",
"h.e.9.e.t.s.f.n.u.W > @ & - - + @ @ @ @ @ @ @ @ @ & - - @ @ A e.c.J.t.t.a.l.k.k.N.P.B.c.f.f.0.0.*.l.",
") Y U U L L P ~ 3.B @ + $ = = @ @ @ @ @ @ @ @ @ @ % = % + + 0 B Y V.W H I L I I Y N.&.S C V C B S &.",
"3.i.e.8.0.9.9.W S N O.O.O.O.o., @ 9 B B Z S M $ + k @.@.+.+.v n S B.c.j.1.9.d.j.e.P.c.t.f.w.l.w.s.K.",
"r.f.9.9.w.( *.M + 3 >.,.,.,.:.2 @ j w.j.s.h.^ $ + #.6.6.6.6.+.+ > y.s.e.w.w.M.a.e.D.V.j.f.j.M.e.8.C.",
"t.0.8.w.f.1.1.n @ 3 -.:.:.:.=.2 + z 8.` e.s.T # @ #.;.;.6.;.v + > r.9.8.d.a.d.M.M.D.C.q.j.e.w.f.k.j.",
"0.1.` e.g.g.9.n @ * 3 3 3 3 2 * @ n s.` t.s.T $ @ < 5 5 5 5 , O > t.a.s.j.j.j.a.j.I.B.j.j.w.a.w.s.k.",
"g.q.( ( h.j.8.n @ @ + + + + + # @ z w.s.j.z.T $ @ $ + + @ + @ @ > t.s.s.a.M.q.q.a.I.C.j.M.f.j.w.s.C.",
"g.8.` ` q.8.*.R n h j j j z j z M I 8.s.s.s.` j B z w e w j h w w c.l.k.q.a.M.a.a.I.C.j.M.j.j.j.w.M.",
"h.` 9.e.u.e.j.D.m.f.e.e.9.y.h.n.S.g.u.e.e.h.l.f.H.n.f.8.) 8.` 8.9.S.h.k.c.N.s.j.j.L.D.C.s.e.M.k.k.C.",
"&.L ~ ~ ( ` 9.c.B.1.! &.*.1.1.) h.0.1.*.3.*.9.8.c.z.) ~ E W ! ! 0.S.0.8.` 1.) ` w.B.j.8.8.) 8.*.8.c."
};
