/* XPM */
static char *result[] = {
/* columns rows colors chars-per-pixel */
"50 50 191 2 ",
"   c #010101",
".  c #0C0404",
"X  c #060708",
"o  c #0B0B0B",
"O  c #130101",
"+  c #160C0D",
"@  c #190E0E",
"#  c #1A120E",
"$  c #180E11",
"%  c #151515",
"&  c #1A1414",
"*  c #1A1816",
"=  c #151619",
"-  c #1A1A1A",
";  c #220101",
":  c #340303",
">  c #211616",
",  c #2D1811",
"<  c #2C1813",
"1  c #231A19",
"2  c #281E1E",
"3  c #36260F",
"4  c #3A2A0F",
"5  c #27211A",
"6  c #3B2316",
"7  c #1F1F20",
"8  c #232222",
"9  c #2C2422",
"0  c #292827",
"q  c #2C2C2C",
"w  c #362827",
"e  c #332E2D",
"r  c #32312E",
"t  c #2E2F30",
"y  c #323232",
"u  c #3A3433",
"i  c #3B3936",
"p  c #3C3B3B",
"a  c #4F0202",
"s  c #620101",
"d  c #6B0101",
"f  c #660808",
"g  c #7E0000",
"h  c #63100F",
"j  c #402F0F",
"k  c #402E2E",
"l  c #463A2E",
"z  c #413633",
"x  c #473836",
"c  c #433C3C",
"v  c #633E23",
"b  c #42403E",
"n  c #48403F",
"m  c #574B3C",
"M  c #5B503F",
"N  c #6C4C36",
"B  c #424141",
"V  c #4B4443",
"C  c #4A4845",
"Z  c #4D4C4C",
"A  c #524D45",
"S  c #534D4A",
"D  c #55514C",
"F  c #59554E",
"G  c #535151",
"H  c #5B5552",
"J  c #5D5A56",
"K  c #5D5C5B",
"L  c #645343",
"P  c #615C57",
"I  c #625E5A",
"U  c #77634E",
"Y  c #65615D",
"T  c #69645E",
"R  c #656361",
"E  c #696662",
"W  c #6E6A65",
"Q  c #6E6C69",
"!  c #736661",
"~  c #726E6A",
"^  c #767067",
"/  c #74716D",
"(  c #7A756D",
")  c #757472",
"_  c #797673",
"`  c #7C7976",
"'  c #7D7C7A",
"]  c #860000",
"[  c #980303",
"{  c #AC0101",
"}  c #B40000",
"|  c #B90505",
" . c #C40000",
".. c #CD0000",
"X. c #D30000",
"o. c #D90000",
"O. c #896F16",
"+. c #907414",
"@. c #8C5529",
"#. c #8F562A",
"$. c #8D5A2E",
"%. c #AB6730",
"&. c #826E58",
"*. c #937A61",
"=. c #837E76",
"-. c #817F7C",
";. c #DDB114",
":. c #E2B514",
">. c #EA8D3F",
",. c #EEC115",
"<. c #F1C715",
"1. c #FFD315",
"2. c #9E866C",
"3. c #878177",
"4. c #83817E",
"5. c #8A857D",
"6. c #8D887E",
"7. c #AC9073",
"8. c #B6997B",
"9. c #FE9B44",
"0. c #C1A07F",
"q. c #858483",
"w. c #888785",
"e. c #8B8986",
"r. c #878788",
"t. c #888788",
"y. c #8C8B8B",
"u. c #928E86",
"i. c #918F8C",
"p. c #969087",
"a. c #93918E",
"s. c #99948C",
"d. c #9E998F",
"f. c #8E8E91",
"g. c #908F90",
"h. c #8F9092",
"j. c #949393",
"k. c #999794",
"l. c #9C9995",
"z. c #969699",
"x. c #97989B",
"c. c #9C9B9A",
"v. c #A3968F",
"b. c #A29D96",
"n. c #A19E9A",
"m. c #A6A097",
"M. c #A8A195",
"N. c #A5A29C",
"B. c #A9A59D",
"V. c #AEA89F",
"C. c #B0A39A",
"Z. c #9C9DA0",
"A. c #A4A3A2",
"S. c #AAA7A1",
"D. c #ADAAA4",
"F. c #A6A7A9",
"G. c #A7A8A9",
"H. c #AEADAB",
"J. c #B1ADA6",
"K. c #B1AEA9",
"L. c #B6B1A7",
"P. c #B5B2AB",
"I. c #BAB5AD",
"U. c #BDB8AF",
"Y. c #AFB0B2",
"T. c #B5B5B4",
"R. c #B9B6B2",
"E. c #BCB9B3",
"W. c gray",
"Q. c #C4A482",
"!. c #CEAD8B",
"~. c #D0AF8D",
"^. c #D2B18F",
"/. c #C1B4AB",
"(. c #C2BDB5",
"). c #E3C39C",
"_. c #C3C1BC",
"`. c #CCC7B9",
"'. c #D1C3B9",
"]. c #EDCBA1",
"[. c #FFDBAD",
"{. c #FFE0B1",
"}. c #C9C9C8",
"|. c #D8D7C7",
" X c #D4D4D4",
".X c #DBDBDB",
"XX c #E9E9D7",
"oX c #EBEBDA",
"OX c #F1F1DE",
"+X c #F1F1E0",
"@X c #FFFFEC",
/* pixels */
"6.4.w._ ` 4.e.S.L.l.y.e.x.a.i.l.I.s.y.w.y.h.j.h.D.N.e.e.e.y.h.h.A._.B.y.e.w.q.j.l. X_.j.a.e.j.e.l.A.",
"5.4.4.4.=.w.' n.B.r.) ` y.e.y.y.P.j.y.' y.y.y.h.N.a.) q.e.q.-.-.A.E.j.w.q.-.t.y.e.}._.j.j.e.q.e.e.l.",
"l.-.' ` ` -._ A.D.e.q.q.e.e.a.j.P.a.4.q.r.y.' y.B.a.Q _ r.' ` ' j.E.a.q.q.~ _ q.q.I.D.e.e.e.e.y.a.m.",
"s.=._ ` ' ' q.D.L.q.h.' q.4.-.g.P.e.q.4.q.w.' q.m.l.4.-.' Q 4.q.k.(.a.e.-.' q.t.e.D.A.e.j.s.q.j.j.c.",
"u.-.-.` w.-.` N.L.e.t.q.-._ w.y.P.a.4./ _ ` ' 4.k.a.q.' ' -.q.y.z.(.e.' q.y.q.q.q.J.D.e.y.y.e.p.t.c.",
"e.` q.4.-._ ) k.J.4.t.y.e.4.q.e.P.a.q.q.q.' q.4.k.j.w.4.4.q.' r.k.(.e.q.y.' q.4.q.J.B.e.z.s.l.j.y.k.",
"e.4.e.e.q.' 4.A.J.j.h.q.q.' q.x.P.a._ w.y.y.h.y.N.k.4.y.4.' r.y.m._.e.' q.r.' r.y.D.P.l.l.c.l.t.a.Z.",
"=.T I P J P P =.l.T I P J J Y ( M.6.^ W T W W W p.u.P Y H F Y R ` I.) Y I Q ~ W Q B.i.T T T P E W 5.",
"s.4.4.=.` ` 4.m.m.W W / ) ~ Q E e.~ E I J J I J 4.` Y Y ) / Q ' e.U.=.` -.-.' ` _ B.l.` ` ) ~ ` ' p.",
"M.p.n.n.a.x.a.L.L.4.4.q.e.w.-.- . X X X   X X X X X   - ` 4.4.4.a.E.e.a.j.j.y.y.w.J.S.e.t.w.e.j.j.c.",
"n.i.u.k.y.l.j.S.S.e.q.' ` q.' %                       % Q ' w.q.z.E.a.y.q.e.t.y.q.N.n.' y.j.y.j.e.A.",
"n.j.i.q.a.a.x.P.D.q.q.q.J p p 8 - - - - - - - - - - - 8 p p B p C J.c.y.q.` S p Z m.A.w.g.y.t.f.r.c.",
"b.k.a.e.j.l.l.P.J.4.4.q.b   X q y y y y y y y y y y y q X       o c.j.w.q.q.7   8 H.D.y.i.y.i.j.j.D.",
"n.l.a.j.j.l.z.H.B.4.` ' c O O w k k k u k z u k k k k w O O O O ; e.y.` ' _ q % q A.l.w.q.j.j.f.y.Z.",
"n.l.j.s.N.l.c.H.B.) = % f } } | | | | | | | | | | | | | } } } } { , % % o = y.W.j.* % R e.j.q.j.j.A.",
"s.e.w.u.e.` 5.b.M.~ X   d o.X.X.X.X.X.X...X.X.X.X.X...X.X.X.X.X. .O       X Z..XA.X   G -.' ' q.e.G.",
"3.P W E Y F Y Y P x a a d g g g g g g g g g g g g g g g g g g g g x 0 %     c..XA.X   p J H I I I e.",
"i.` y.r.4.4.q.i   ;  .X.s                                       o a.p.Y     c..XA.X   K j.q.f.f.l.A.",
"y.` ` / ` e.4.i   ; | ..s     X           . X           X       X l.Z.K X X x. Xc.X   J r.f.q.q.w.j.",
"i.` ' 4.` q.q.q.-.H : : < 8 r 7.Q.U     *.0.0.0.Q.l   & 8.Q.M     0 0 G Z.N.G y B 4.) ' ' q.y.j.g.l.",
"a.q.4.q.r.q.e.P.B.) X   - y n ).{.2.  X Q.{.[.[.[.m   5 ].[.&.        Z  X Xi   0 A.n.y.f.f.f.f.g.g.",
"l.e.-.4.r.r.y.t._ J % o - y c 8.^.&.o + 2.!.!.!.!.m X 9 0.~.L         Z  X Xi   8 A.j.e.j.j.f.f.j.c.",
"a.y.y.y.y.i.y.y   o q t y y y y i y y t y y i y y y y y u y -         Z  X Xy   8 c.l.f.y.y.f.z.c.n.",
"a.g.y.y.e.w.4.y   o t y y y y y y y y y y y y y y y y y y y -         G  X Xi   8 n.J.A.g.z.A.Z.n.Y.",
"W F A A i - 1 h ] d & % 8 y y y y y y y y y y y y y y y y y -   o Q r.) G G B y c d.u.I P P R J R u.",
"p.5.4.` I     ] o.} .   - y y y y y y y y r y y y y y y y y -   o W..Xy.    R q.q.V.i.' j.y.g.y.y.D.",
"n.w.w.y.R % % g | [ $ % - q q q q q q q q q q q q q q q q q %   o T..Xr.    Q f.y.N.g.j.j.g.f.f.j.Z.",
"w.w.e.i.q.` 4.i O > ) 4.p X X   X       X   X     X       X     o T..Xr.    Q r.i.c.y.j.g.F.f.f.j.Y.",
"j.y.e.q.y.h.j.p   = -.t.b                                       o T..Xy.    E q.t.n.i.y.f.x.Z.Z.y.F.",
"e.i.y.y.j.l.j./ C b S H u = % % % % % % * = % = % % % %         X R ' R B B ) q.e.N.z.f.f.z.f.q.q.n.",
"j.i.y.y.h.c.h.T.B.' * @ 8 y y y y y y y y y y y y y y q               y y.r.y.q._ n.j.i.r.f.f.r.g.F.",
"e.-.q.y.y.j.j.K.n.-.> $ 9 y y y y y y y y y y y y y y q X             t ' ' t.w.q.n.a.x.j.z.z.f.z.F.",
"-.` ` ` _ ' 4.F w 9 q q e y r o X - y y y y y y t y y q X   X + +     o - - E ~ ) N.6._ _ _ _ ' ` l.",
"/ R T T E Q T z @ * q q q t q X   % y y q y y y y y y 0     O & +           S E E s.=.~ ~ ~ ~ W ~ e.",
"l.j.l.g.y.a.a.c @ 2 E ~ Q ~ R +   % y y y y y y y y y y u i 9 @ @ r y q t y t.A.k.S.i.l.j.j.x.j.g.c.",
"a.h.y.q.q.j.j.V + z OX@X@X@XXX8   % y y y y y y y y t C /.'.! O 1 k.l.j.g.n.n.c.x.K.a.w.w.q.i.w.t.z.",
"l.c.h.q.' e.f.c + i +X@X@X@XXX8   % y y y y y y y t y C /.'.! + > n.j.x.c.j.A.z.Z.R.i.q.e.' y.j.g.k.",
"w.h.h.w.' ) q.c + i +X@X@X@XXXr + * 7 7 7 8 2 8 7 8 7 i I.'.! + 1 b.n.Z.z.z.Y.Z.j.J.n.j.j.f.f.j.e.j.",
"n.-.-.4.4.-.-.p + z +X@X@X@XoXi = = - - - = - = - - * y /.'.! + 1 b.Z.c.Z.c.j.j.z.E.l.g.z.i.w.j.g.x.",
"k.y.j.y.w.h.w.V 2 c `.|.|.|.`.r * = * * = * & & * = = e v.C.! 2 e V.c.i.z.n.j.g.k.E.n.i.j.y.y.t.t.k.",
"l.y.w.y.a.i.j.l.u.W 2 2 2 0 8 & @ $ @ $ @ @ @ @ $ & = - > > G q.l.U.i.i.i.c.x.x.A.R.S.n.j.j.e.e.-.c.",
"` W E T Y Y T ( 6.S + + $ = = $ $ + @ @ @ @ > $ @ & = = + + e Z W S.~ I R R R R W A.=.J F S F S H =.",
"6.s.y.q.e.w.e./ H M O.+.+.+.O.> $ w S S D P n $ @ v $.$.@.#.N C G V.n.z.4.t.h.z.y.R.n.i.j.t.l.y.g.Y.",
"p.j.w.w.t._ 4.V + j <.1.1.1.,.4 + c t.z.a.l.~ $ @ %.9.9.9.9.@.+ > p.g.y.t.t.Z.f.y.J.D.x.j.z.Z.y.w.F.",
"g.e.q.t.g.4.4.V + j :.,.,.,.;.3 $ n 4.` y.i.Q $ + %.>.>.>.>.@.+ > u.e.q.f.f.h.Z.Z.J.F.t.z.y.t.j.z.z.",
"e.4.' y.l.k.w.V @ # 4 4 4 4 4 # $ V j.=.i.j.Q $ @ < 6 6 6 6 < + > i.f.g.z.z.z.f.x.E.D.z.z.t.f.t.g.x.",
"k.w.) _ l.x.q.n @ @ + + + @ + @ $ n t.g.z.l.Q $ $ + + + + + + + > i.g.g.f.Z.r.r.f.E.F.z.Z.f.z.r.g.F.",
"k.q.' ' r.q.-.! V c c c c n c n V Y q.i.g.j.-.c S b u i i c x u u n.c.x.r.f.Z.f.f.E.G.z.Z.z.z.z.t.Z.",
"l.' q.y.a.y.z.K.B.j.y.y.w.u.k.N.J.k.a.y.y.x.c.j.P.A.a.q.` q.' q.w.J.k.n.Z.A.g.z.z.T.K.F.g.y.Z.x.x.F.",
"3.Y ( ( _ ' w.n.V.q.~ =.-.4.5.` l.t.4.4.6.-.w.w.B.d.` ( ~ / / / e.J.e.q.` 4.` ' w.G.k.q.q.` q.-.q.n."
};
