/* XPM */
static char *result[] = {
/* columns rows colors chars-per-pixel */
"50 50 183 2 ",
"   c #010101",
".  c #0C0404",
"X  c #080807",
"o  c #0B0B0B",
"O  c #170000",
"+  c #1A0000",
"@  c #160C0D",
"#  c #190E0E",
"$  c #1A120E",
"%  c #170F11",
"&  c #141414",
"*  c #1A1313",
"=  c #151619",
"-  c #191918",
";  c #1A1A1A",
":  c #220000",
">  c #280C0C",
",  c #310303",
"<  c #291C0F",
"1  c #211717",
"2  c #2B1B16",
"3  c #241B1A",
"4  c #36260F",
"5  c #3A2A0F",
"6  c #25211C",
"7  c #3B2316",
"8  c #242423",
"9  c #2B2423",
"0  c #2B2926",
"q  c #2C2C2C",
"w  c #342B26",
"e  c #32312E",
"r  c #3B312C",
"t  c #2F2F30",
"y  c #2F3232",
"u  c #323232",
"i  c #3C3433",
"p  c #3A3936",
"a  c #3B3B3A",
"s  c #490909",
"d  c #500000",
"f  c #521A19",
"g  c #640000",
"h  c #6C0202",
"j  c #710101",
"k  c #790202",
"l  c #402F0F",
"z  c #4B2A29",
"x  c #403733",
"c  c #403A36",
"v  c #433C3B",
"b  c #633E23",
"n  c #42403E",
"m  c #49423E",
"M  c #5B4C3C",
"N  c #5B503F",
"B  c #6C4C36",
"V  c #444343",
"C  c #4C4442",
"Z  c #4D4945",
"A  c #4C4C4B",
"S  c #534C45",
"D  c #5C4946",
"F  c #514D4A",
"G  c #55514D",
"H  c #5A554E",
"J  c #544F50",
"K  c #545353",
"L  c #5B5652",
"P  c #5D5A55",
"I  c #5A5A5A",
"U  c #645342",
"Y  c #645A4F",
"T  c #605756",
"R  c #625C56",
"E  c #625E5A",
"W  c #65615D",
"Q  c #69645E",
"!  c #7D6853",
"~  c #666462",
"^  c #696662",
"/  c #6E6A65",
"(  c #6D6B6A",
")  c #736661",
"_  c #716C66",
"`  c #726E6B",
"'  c #74716D",
"]  c #7A756D",
"[  c #726F71",
"{  c #757472",
"}  c #797673",
"|  c #7C7976",
" . c #787778",
".. c #7D7C7A",
"X. c #890000",
"o. c #871616",
"O. c #A70000",
"+. c #AC0101",
"@. c #BB0000",
"#. c #C50000",
"$. c #D20000",
"%. c #896F16",
"&. c #907414",
"*. c #8C5529",
"=. c #8D5A2E",
"-. c #AB6730",
";. c #837E76",
":. c #817F7C",
">. c #DDB114",
",. c #E2B514",
"<. c #EA8D3F",
"1. c #EEC115",
"2. c #F1C715",
"3. c #FFD315",
"4. c #9C8368",
"5. c #878177",
"6. c #83817E",
"7. c #8A857D",
"8. c #8D887E",
"9. c #BF9F7E",
"0. c #FE9B44",
"q. c #858483",
"w. c #888785",
"e. c #8B8986",
"r. c #878788",
"t. c #888788",
"y. c #8C8B8B",
"u. c #928E85",
"i. c #918F8C",
"p. c #969087",
"a. c #93918E",
"s. c #99948C",
"d. c #9E998F",
"f. c #8E8E91",
"g. c #908F90",
"h. c #8F9092",
"j. c #949393",
"k. c #999794",
"l. c #9C9995",
"z. c #969699",
"x. c #97989B",
"c. c #9C9B9A",
"v. c #A29D96",
"b. c #A89C94",
"n. c #A19E9A",
"m. c #A6A097",
"M. c #A5A39D",
"N. c #A9A59D",
"B. c #AEA89F",
"V. c #9C9DA0",
"C. c #A4A3A2",
"Z. c #AAA7A1",
"A. c #ACAAA4",
"S. c #A6A7A9",
"D. c #AEADAB",
"F. c #B1ADA6",
"G. c #B1AEA9",
"H. c #B6B1A7",
"J. c #B5B1AB",
"K. c #BBB4AC",
"L. c #BDB8AF",
"P. c #AFB0B2",
"I. c #B4B4B3",
"U. c #B9B6B2",
"Y. c #BDBAB3",
"T. c gray",
"R. c #D1AF8C",
"E. c #C2B5AB",
"W. c #C2BDB5",
"Q. c #E8C39B",
"!. c #C3C1BC",
"~. c #C9C9BA",
"^. c #D1C3B9",
"/. c #FCD1A6",
"(. c #FFD6A9",
"). c #FFDAAD",
"_. c #C9C9C8",
"`. c #D8D8C8",
"'. c #D4D4D4",
"]. c #DBDBDB",
"[. c #EBEBDA",
"{. c #F1F1DE",
"}. c #FFFFED",
/* pixels */
"8.6.w.} | 6.e.Z.J.k.i.e.c.a.i.l.K.s.y.w.y.f.j.h.D.M.e.e.e.y.h.h.N.W.M.y.e.w.q.k.k.'.!.j.a.e.j.e.k.C.",
"7.6.6.:.;.w...n.N.w.{ } y.e.y.y.J.j.y...y.y.y.h.M.a.' q.e.q...6.C.W.j.r.q.6.t.y.w._.!.j.j.e.q.e.y.k.",
"l.:...| | 6.} C.Z.e.q.q.e.e.i.j.J.a.6.q.r.y...y.M.a._ } e...| ..a.Y.a.q.q.( } q.q.K.F.w.e.e.e.y.a.n.",
"s.;.} | ....q.Z.J.q.h...q.6.:.h.J.e.q.6.q.r...q.n.l.6.6...( 6.q.k.!.a.e.....q.y.w.F.C.t.j.s.q.k.j.n.",
"u.:.6.| e.:.| M.H.e.w.q.:.} w.y.J.a...{ } | ..6.k.a.q.....6.q.y.k.!.e...q.t.q.q.q.J.A.e.y.y.e.p.e.l.",
"e.| q.6.:.} { k.D.6.w.y.r.6.q.w.J.a.q.q.q...q.:.k.j.q.q.6.q...w.k.Y.q.q.y...q.6.7.D.N.e.x.s.k.j.y.k.",
"e.6.e.e.q...6.C.H.j.h.q.q.....a u q 8 0 0 0 q 0 t q 8 p ....r.y.N.!.e...q.t...r.t.A.J.l.l.c.k.y.a.n.",
";.Q E R P R P ;.k.^ W R P P P @                       o G L P ^ | K.} W E ( ' / ( B.e.Q Q Q W Q / 7.",
"s.6.6.;.| | 6.m.m./ / ' / L K = o X o o X X o X X X o & I P P ~ ' J.;.| ..6./ I ^ N.l.| | } ` | ..a.",
"m.p.n.c.a.k.a.H.J.6.6.q.V   X q y t y u u y u y u u q q o   X X & n.e.a.j.j.q   8 Z.B.e.q.t.e.j.j.c.",
"n.i.u.k.f.k.a.Z.Z.w.w...a     q y y u y y y u y y y y q         o n.a.y.q.q.8   ; m.c...y.j.y.g.w.C.",
"v.j.a.q.a.j.c.D.A...n a f j j o.o.o.o.o.o.o.o.o.o.o.o.o.j j j h h D V V p a ~  .~ A A ( h.y.y.g.r.c.",
"v.k.a.e.j.k.k.J.D./ o   h $.$.$.$.$.$.$.$.$.$.$.$.$.$.$.$.$.$.$.#.+         C.].S.X   K i.y.g.g.j.A.",
"m.l.a.j.j.c.z.C.k.W + . h #.@.@.@.@.@.@.@.@.@.@.@.@.@.@.@.@.@.@.+.> o X   X V.].C.X   K q.k.j.g.y.n.",
"c.l.k.s.C.k.c.Z & > +.@.g O O O O O O O O O + O O O O + O O O + > 7.r.A     c.].V.X   I e.f.q.y.j.C.",
"s.e.w.u.e.| 8.p   : #.$.g                                       X s.q.J     C.].C.X   K :...6.q.w.S.",
"5.P / ^ W H W F p w k k s & ; M U r     m B U N U 6   @ M U w   X K v n K K  .q.( a u Z P L E E E e.",
"i.| y.w.:.6.q.C.B.( .   ; u m Q.).4.  X 9.).).(.).M   6 Q.).!         A '.'.p   8 C.N.j.k.q.f.f.k.C.",
"y.| | { | e.:.c.Z.` o   ; u n R.(.4.    9././././.M   6 Q.).!         A '.'.p   8 C.c.a.t.h.r.q.w.g.",
"i.| ..6.| q.q.J 9 8 8 8 y u i H Y C 8 0 S Y Y R Y i 8 e H Y w         A '.'.u   8 A.m.r...q.t.f.g.l.",
"a.q.6.q.r.r.t.a   X u u u u u u y u u u u q u t y u u u e q -         A ].'.u   8 M.c.y.h.f.f.j.j.g.",
"c.e.6.6...~ ( z , , 8 8 q u u u u u u u u u u u u u u u u p -   X q u I C.c.V 8 a C.k.e.j.a.f.f.j.c.",
"a.y.y.y.~ X   X.$.O..   ; u u u u u u u u u u u u u u u u u -   & P.'.q.  X ( x.r.M.l.f.f.t.f.x.c.n.",
"a.i.y.y.~     X.$.+..   - u u u u u u u u u u u u u u u u u -   o I.].r.    { x.h.C.D.M.f.x.C.c.n.P.",
"/ H S S c 0 e f d s 9 0 3 = & & & & & & & & & & & & & & & & X   & I.].r.    V L T v.u.E E E ~ P ~ u.",
"e.7.6...6.6.| e   - | ..a                                       & I.].r.    ~ q.q.M.g...j.y.g.y.y.A.",
"m.w.w.y.q.w.w.V @ 8 :.:.v X X X X   X X X   X X X X X X         o V.T...& = ( y.y.N.i.j.j.g.f.f.g.V.",
"w.e.e.i.e.q.y.l.j.[ 3 3 8 q q q q q q u q q q q q q q 0 % @ .     o & a ..q.f.t.i.l.y.j.g.S.f.f.j.P.",
"j.y.e.q.y.h.j.D.M. .1 # 8 u y u u u u u u t u u u u u q * % .         p f.y.t.q.w.n.i.y.y.x.V.V.i.S.",
"e.i.y.y.j.l.j.6.E F 6 3 0 u t 8 ; 0 u u u y u u u u u 0 @ . . X .     ; J A  .q.e.M.x.f.f.z.f.q.q.V.",
"j.i.y.y.f.c.h.Z # * t u t u t X   & u u u u u u y u p q     . * @           ~ q.} n.j.i.r.f.f.t.g.S.",
"e.:.q.y.y.j.k.Z # 1 p a a a u X   & u u u u u u u u u q o X @ # @ X X X X X ( w.q.n.i.x.j.z.z.g.z.S.",
":.| | | } ..6.m @ r ~.`.`.`.~.;   & u u u u u u u u t V b.b.Y @ > ] _ ~ ^ ~ :.` { b.8.} } } } ..| l.",
"' ^ Q W ^ ( Q c @ x {.}.}.}.[.8   = u u u u u u u u t Z E.^.) @ 1 u.:./ ~ ` ^ ^ ^ s.;.' ` ` ` ) ` e.",
"c.j.c.a.y.a.a.m @ x {.}.}.}.[.0   = q q 0 q q q q q q n E.W.) @ 3 v.G.n.V.C.C.C.l.Z.i.j.j.j.c.j.g.c.",
"a.y.y.q.q.j.h.v @ x {.}.}.}.[.u % ; ; ; = - - - - - = u E.W.) @ 1 k.c.g.j.V.V.c.c.G.i.w.r.q.i.q.t.c.",
"k.c.h.q...e.f.v @ x {.}.}.}.[.p ; ; ; ; ; ; ; ; - ; = e E.W.) @ 3 v.g.z.n.g.C.c.V.U.i.q.t...y.j.g.k.",
"e.h.h.r...{ q...^ E R R W W E 3 * # # * % * * * % - - 8 C D T [ | F.n.V.z.z.P.n.j.F.n.j.j.f.g.j.e.j.",
"m.:.:.6.6.:.:.h.i.` % @ @ - & % # # # # # # # # % - - - # @ D x.C.W.V.c.V.n.g.g.x.U.c.i.x.i.w.j.g.x.",
"k.y.j.y.w.h.r.q.w.~ * # = - - % # 1 9 9 9 9 3 # # * - - # # J :.c.W.z.g.z.V.z.g.k.Y.n.i.j.y.y.t.t.k.",
"l.y.w.y.j.g.j.n.a.` * # * ; ; % # v e.:.w.6.E * # * - - # # J y.n.L.i.i.g.k.x.x.C.U.Z.n.j.k.t.e.:.c.",
"| ) ^ Q Q E Q ] 8.F % @ % = = % # x S C S v c # # = = = @ @ e S _ B.` E ~ ~ ~ ~ / C.:.L H S H F H ;.",
"8.s.y.q.e.w.w.' L N &.&.&.&.%.< # v t.t.e.l.;.# # b =.=.*.*.B C J Z.n.x.:.t.f.x.y.U.n.i.j.w.c.t.f.P.",
"u.j.w.w.w.} :.Z @ 5 2.3.3.3.1.7 # v w.z.a.l.` # @ -.0.0.0.0.*.@ 3 p.g.y.t.t.V.f.y.F.A.x.j.x.V.y.w.S.",
"g.e.q.t.f.:.6.C @ l ,.,.1.1.>.4 @ m 6.| y.i.( * % -.<.<.0.<.B @ 1 u.w.q.f.f.f.V.V.G.S.w.x.y.t.j.z.x.",
"y.6...y.c.k.w.C # 1 l 5 5 5 5 $ # C g.:.i.g.( # # 2 7 7 7 7 > @ 3 u.f.f.z.x.x.f.z.Y.Z.z.x.w.f.t.g.x.",
"k.w.{ } l.c.q.C # # @ @ # @ @ % # C t.g.z.c.( # @ @ @ @ @ @ # # 1 e.g.g.f.V.r.t.g.Y.S.x.V.f.x.q.f.S.",
"k.q.....r.q...) C c v v v m v m C ~ q.g.g.g.:.v F C i i c v c r x n.n.x.r.f.V.f.f.U.S.x.V.z.z.x.t.V.",
"l...q.y.a.y.k.G.N.j.y.y.w.u.k.M.F.k.a.y.y.c.c.j.J.C.a.q.| q...q.t.F.j.n.V.C.g.z.z.I.G.S.g.y.V.x.x.S.",
"5.W ] ]  ...w.c.F.6.` ;.:.6.7.| l.w.6.6.8.:.w.q.M.d.| ] ` ' ' ' e.F.e.q...6.| ..t.Z.z.q.q.| w.:.q.n."
};
