/* XPM */
static char *house1647784946[] = {
/* columns rows colors chars-per-pixel */
"50 50 201 2 ",
"   c #8D887E",
".  c #83817E",
"X  c #888785",
"o  c #797673",
"O  c #7C7976",
"+  c #8B8986",
"@  c #AAA8A4",
"#  c #B5B1A9",
"$  c #999794",
"%  c #918F8C",
"&  c #9A9A98",
"*  c #93918E",
"=  c #9D9A94",
"-  c #B9B5AD",
";  c #99948C",
":  c #8C8B8B",
">  c #8F9092",
",  c #949393",
"<  c #AFACA5",
"1  c #A6A39C",
"2  c #A6A4A1",
"3  c #C4BFB5",
"4  c #858483",
"5  c #9A9998",
"6  c #D5D4D2",
"7  c #C2C1BD",
"8  c #A5A4A2",
"9  c #8A857D",
"0  c #817F7C",
"q  c #837E76",
"w  c #7D7C7A",
"e  c #A19E9A",
"r  c #AAA69E",
"t  c #878788",
"y  c #757471",
"u  c #B6B3AD",
"i  c #A4A3A3",
"p  c #C0BCB3",
"a  c #888788",
"s  c #C9C9C8",
"d  c #ADAAA4",
"f  c #B6B2AA",
"g  c #6F6C69",
"h  c #BCB9B3",
"j  c #B1ADA6",
"k  c #A19F9B",
"l  c #8E8E91",
"z  c #E74C3C",
"x  c #C2BEB6",
"c  c #B0ACA5",
"v  c #A5A39F",
"b  c #928E86",
"n  c #A4A19D",
"m  c #B6B1A7",
"M  c #969699",
"N  c #B1AEA9",
"B  c #AEAAA3",
"V  c #969087",
"C  c #B1AEA7",
"Z  c #C0BCB4",
"A  c #A9A59C",
"S  c #9C9995",
"D  c #C5C1B9",
"F  c #C0392B",
"G  c #B4B1AC",
"H  c #9A9896",
"J  c #9E9C99",
"K  c #9F9E9C",
"L  c #69645E",
"P  c #625E59",
"I  c #615C57",
"U  c #5E5A55",
"Y  c #6A6661",
"T  c #65615C",
"R  c #7A756D",
"E  c #A8A195",
"W  c #767067",
"Q  c #6E6A65",
"!  c #E74C3B",
"~  c #E45041",
"^  c #666360",
"/  c #B9B4AB",
"(  c #A2A09B",
")  c #A6A097",
"_  c #74716D",
"`  c #726E6A",
"'  c #E64B3B",
"]  c #E35041",
"[  c #B97D77",
"{  c #E84B3B",
"}  c #BDB8AF",
"|  c #A19E99",
" . c #B97E77",
".. c #96A4A4",
"X. c #AAA7A1",
"o. c #9D9C99",
"O. c #908F90",
"+. c #AAA8A3",
"@. c #C3C0B8",
"#. c #96A4A5",
"$. c #94A5A6",
"%. c #9C9B9B",
"&. c #B3B0AB",
"*. c #9DABAD",
"=. c #A29D95",
"-. c #9DABAC",
";. c #B6BEC1",
":. c #D44334",
">. c #9D9B97",
",. c #AEADAB",
"<. c #E54E3F",
"1. c #BDC3C7",
"2. c #D24233",
"3. c #AEABA5",
"4. c #BBC1C5",
"5. c gray",
"6. c #B8C1C7",
"7. c #A7A8A9",
"8. c #59554E",
"9. c #9E998F",
"0. c #A4B9C7",
"q. c #8EAEC3",
"w. c #BFC4C7",
"e. c #5B5651",
"r. c #BBC2C7",
"t. c #77A3C0",
"y. c #3A87BA",
"u. c #2B81B9",
"i. c #7DA6C1",
"p. c #2982BD",
"a. c #2C86C2",
"s. c #BDC4C9",
"d. c #DA4536",
"f. c #AFBDC6",
"g. c #428CBC",
"h. c #2C8AC8",
"j. c #3294D6",
"k. c #3497DA",
"l. c #9EB5C4",
"z. c #368EC8",
"x. c #3398DB",
"c. c #3498DB",
"v. c #3D99D6",
"b. c #5DA5D5",
"n. c #3197DB",
"m. c #B8C1C8",
"M. c #BDC3C8",
"N. c #97989B",
"B. c #9FB9CB",
"V. c #489ED8",
"C. c #A2BACB",
"Z. c #BCC4C9",
"A. c #B6BEC2",
"S. c #A2A1A0",
"D. c #9C9DA0",
"F. c #AFB0B2",
"G. c #524D45",
"H. c #66A8D4",
"J. c #499FD8",
"K. c #B0BFC9",
"L. c #BC7B74",
"P. c #A6A7A9",
"I. c #C1B0A4",
"U. c #CD7134",
"Y. c #CE6D2C",
"T. c #CE6D2D",
"R. c #A1AEB0",
"E. c #C2AA9A",
"W. c #D35909",
"Q. c #D45300",
"!. c #C5B1A0",
"~. c #DF7621",
"^. c #E17218",
"/. c #DF6E16",
"(. c #E57C20",
"). c #C6B4A2",
"_. c #E4812A",
"`. c #E67F23",
"'. c #E4822A",
"]. c #E67D22",
"[. c #E78221",
"{. c #EA941C",
"}. c #E48329",
"|. c #C6B3A2",
" X c #EFB612",
".X c #F0BE10",
"XX c #E58B27",
"oX c #E08208",
"OX c #E27E25",
"+X c #55514C",
"@X c #524D48",
"#X c #B5B4B2",
"$X c #A6A39E",
"%X c #B9B6B2",
"&X c #A4A29E",
"*X c #B6B4B0",
"=X c #878177",
"-X c #AEA89F",
";X c #A6A29B",
":X c #B4AFA7",
">X c #A19F9C",
/* pixels */
"  . X o O . + @ # $ % + & * % = - ; : X : > , > < 1 + + + : > > 2 3 1 : + X 4 , 5 6 7 , * + , + $ 8 ",
"9 . . 0 q X w e r t y o : + : : u , : w : : : > 1 * y 4 + 4 0 0 i p , a 4 0 a : X s 7 , , + 4 + + & ",
"= 0 w O O 0 o 2 d + 4 4 + + % , f * . 4 t : w : 1 * g o t w O w , h * 4 4 g o 4 4 - j X + + + : % k ",
"; q o O w w 4 @ # 4 l w 4 . 0 > u + 4 . 4 t w 4 z z . 0 w g . 4 $ x * + 0 w 4 : X c v + , ; 4 , , k ",
"b 0 0 O X 0 O n m + t 4 0 o X : f % 0 y o O w z z z z w w 0 4 : M x + w 4 : 4 4 4 N B + : : + V + & ",
"+ O 4 . 0 o y $ C . t : t . 4 + f * 4 4 4 w z z z z z z . 4 w t $ Z X 4 : w 4 . 4 j A + M ; S , : $ ",
"+ . + + 4 w . 8 C , > 4 4 w 4 & u * o X : z z z z z z z z w t : 1 D + w F F F F F < G H & J H : * K ",
"q L P I U I I q = Y P I U U T R E 9 W Q z z z ! ~ z ! z z z P ^ O / o F F F F F F F b L L L I Y Q 9 ",
"; . . q O O . ( ) Q Q _ y g ` w < + q z z z ' ] [ [ ~ { z z z w + } q F F F F F F F = O O y ` O w V ",
") V | e % & * m m . . 4 + X + & 3 & z z z z z  ..... .] { z z z * } + F F F F F F F X.+ a a + , , o.",
"| % b $ O.$ * X.+.X X w O 4 X * @.z z z z ]  .#...$... .~ { z z z h * F F F F F F F e w : , : O.t 8 ",
"| , % 4 * * %.&.< X 4 . w X : , z z ! { ~ [ $.$.*.*.$...[ ~ { z z z o.F F F F F F F 2 X O.: : O.a %.",
"=.$ * + , H H G < . . X X . 4 z z z { ~  .$.$.-.;.;.*.$... .] z z z z :.F F F F F F B O.% : O.O., @ ",
"| >.* , , o.M ,.A . 4 X : w z z z { <.[ $.$.-.;.1.1.;.*.....[ ~ { z z ! 2.F F F F F 3.: X , , O.: K ",
"e = , ; v H o.,.A X : X X z z z { ]  ...$.-.4.1.1.1.1.;.*.$... .<.! z z ! 2.F F F F 3., + O.4 O., 8 ",
"; + X b + O 9 =.) 9 b + z z z { ~  ...$.-.5.1.1.1.1.1.1.6.*.....[ ~ ' z z ! 2.F F F = 4 0 w 0 4 + 7.",
"q I Q Y T 8.L 9 9.Q L z z z { ~  ...$.*.;.1.1.0.q.q.0.1.w.;.-...#. .~ { z z ' 2.F F + L U e.P P P + ",
"% O : t 0 0 4 v r 4 z z z { ~  .....-.6.1.r.t.y.u.u.y.t.r.1.;.*.$.$.[ ~ { z z ' 2.F A , , 4 l l $ 2 ",
": O O y O + 0 K d z z z { ~  .#.$.*.;.1.1.i.u.p.a.a.u.u.i.1.s.;.-.$.#. .~ { z z ' d.e % t l t 4 X , ",
"% O w . O 4 4 K z z z { ~  .$.$.*.;.1.1.f.g.h.j.k.k.j.h.g.f.1.1.;.-.$...[ ~ { z z z | a w 4 : O.O.$ ",
"* 4 . 4 t 4 + z z z { ~  .#.$.-.;.1.1.1.l.z.x.x.c.c.c.k.z.l.w.1.1.;.-.$... .z { z z z : l l l O., O.",
">.+ 0 . t t z z z { <.[ ..$.-.;.1.1.1.1.0.v.x.x.c.c.c.c.v.0.w.1.1.1.;.-.$... .] ' z z z , O.l l , %.",
"* : : : : z z z { ] [ ..$.-.;.1.1.1.1.1.r.b.x.x.c.c.n.n.b.m.1.1.1.1.M.;.*.$.#.[ ~ { z z z : l N.& K ",
"* % : : z z z { ~  ...$.-.;.1.1.1.1.1.1.1.B.V.x.x.x.n.V.C.1.1.1.1.1.M.Z.A.*.$.#.[ <.{ z z z S.D.K F.",
"Q 8.G.z z z { ~  ...$.-.A.M.1.1.1.1.1.1.1.1.C.H.J.J.H.C.1.1.1.1.1.1.1.1.1.;.-.$.#.[ ~ { z z z U ^ V ",
"b 9 z z z z ] [ ..$.*.A.M.M.1.1.1.1.1.1.1.1.1.r.K.K.1.1.1.1.1.1.1.1.1.1.1.1.;.-...#.[ ~ z z z z : @ ",
"k X z z z z L.....*.;.1.M.1.1.1.1.1.1.1.1.1.M.1.1.1.1.1.1.1.1.1.1.1.1.1.1.1.1.;.-.$...[ z z z z , D.",
"X + + z z 4 ....-.;.1.1.1.1.1.1.1.1.1.1.1.M.M.M.M.M.M.M.M.1.1.1.1.1.1.1.1.1.1.1.;.-.....l z z l , F.",
", : + 4 : > ..*.;.1.1.1.1.1.1.1.1.1.1.1.1.5.5.5.5.5.5.5.5.1.1.1.1.1.1.1.1.1.1.1.M.;.-.$.: N.D.D.: P.",
"+ % : : , & *.6.1.1.1.1.1.1.1.1.1.1.M.M.I.U.Y.Y.T.T.T.T.U.I.M.1.1.1.1.1.1.1.1.1.M.M.;.R.l M l 4 4 K ",
", % : : l & r.1.1.1.1.1.1.1.1.1.1.1.1.s.E.W.Q.Q.Q.Q.Q.Q.W.E.s.1.1.1.1.1.1.1.1.1.1.1.M.r.t l l t > P.",
"+ 0 4 : : , 1.1.1.1.1.1.1.1.1.1.1.M.M.M.!.~.^.^.^.^.^./.(.!.s.1.1.1.1.1.1.1.1.1.1.1.1.1., M M l M P.",
"0 O O O o w 1.1.1.1.1.1.1.1.1.1.1.1.1.Z.)._.`.`.`.`.`.`.'.).s.M.M.1.1.1.1.1.1.1.1.1.1.1.o o o w O S ",
"_ Y L L Y g 1.1.1.1.1.1.1.1.1.1.1.1.1.Z.)._.`.(.(.`.].(.'.).s.M.M.1.1.1.1.1.1.1.1.1.1.1.` g _ Q ` + ",
"o., & % % % 1.1.1.1.1.1.1.1.1.1.1.1.1.Z.!.'.`.`.].].].].'.!.Z.1.1.1.1.1.1.1.1.1.1.1.1.1., , & , O.%.",
"* l : 4 4 , 1.1.1.1.1.1.1.1.1.1.1.1.1.Z.).'.`.`.[.].].].'.!.Z.1.1.1.1.1.1.1.1.1.1.1.1.1.a 4 % 4 a 5 ",
"$ & O.4 w + 1.1.1.1.1.1.1.1.1.1.1.1.1.s.).'.].].`.`.{.{.}.).s.1.1.1.1.1.1.1.1.1.1.1.1.1.+ w : , O.$ ",
"+ > > t w y 1.1.1.1.1.1.1.1.1.1.1.1.1.s.|.'.].].`.[. X.XXX|.s.1.1.1.1.1.1.1.1.1.1.1.1.1., l l , + , ",
"k 0 0 . . 0 1.1.1.1.1.1.1.1.1.1.1.1.M.M.|.'.].].`.^.oXoXOX|.s.1.1.1.1.1.1.1.1.1.1.1.1.1.M % X , O.N.",
"$ : , : X l 1.1.1.1.1.1.1.1.1.1.1.M.M.M.|.'.(.`.`.(.^./.'.|.s.M.1.1.1.1.1.1.1.1.1.1.1.1., : : a a $ ",
"S : X : * O.1.1.1.1.1.1.1.1.1.1.1.1.1.s.)._.(.`.`.`.`.(._.).Z.1.1.1.1.1.1.1.1.1.1.1.1.1., , + + . %.",
"O Q Y L T T 1.1.1.1.1.1.1.1.1.1.1.1.1.s.!._.`.`.(.(.`.`._.).Z.1.1.1.1.1.1.1.1.1.1.1.1.1.8.+X8.@X8.q ",
"  ; : 4 + X 1.1.1.1.1.1.1.1.1.1.1.1.1.s.).'.`.(.].].`.`._.!.Z.1.1.1.1.1.1.1.1.1.1.1.1.1., a 5 : l F.",
"V , X X t o 1.1.1.1.1.1.1.1.1.1.1.1.1.s.).'.`.`.].].`.`.'.).s.1.1.1.1.1.1.1.1.1.1.1.1.1., M D.: 4 P.",
"O.+ 4 a O.. . u ) w 4 w . : + % j , . w : % a a G X.4 a w 0 4 4 % r X 4 > l > D.D.N P.a M : a , M 5 ",
"+ . w : & $ X @ A + X X + + , o.B >.* w % , a M #X< : 4 0 t 4 t : $Xl l M M M l M h @ M M a l a O.N.",
"$ t y o = & 4 8 A 4 + O., , o.v 3., a l M & : t %X1 a t t : t 4 . $XO., l D.t t O.h P.M D.> M t l P.",
"H 4 w w t 4 0 3.d t O.O.a ; , o.N $ 4 % l , , : %X>.w 4 4 a 4 _ _ c %.N.t l D.l l h 7.M D.M M M a D.",
"S w 4 : * : M &.A , : : X V H &X< $ * : : & %., *Xv * 4 O 4 w 4 X c $ %.D.i l M M #X,.P.O.: D.N.N.P.",
"=XT R R o w X o.-X. _ q w . 9 O = + . . 9 . X 4 ;X9.O R ` _ _ _ + :X+ 4 w . O w X @ $ 4 4 O 4 . 4 >X"
};
