/* XPM */
static char *luke1647784946[] = {
/* columns rows colors chars-per-pixel */
"50 50 108 2 ",
"   c #0C0A0A",
".  c #110C0A",
"X  c #1C1716",
"o  c #261C18",
"O  c #352B2A",
"+  c #3B2E2B",
"@  c #3E312E",
"#  c #3E3330",
"$  c #41322E",
"%  c #443633",
"&  c #483733",
"*  c #473835",
"=  c #493A36",
"-  c #463D3A",
";  c #4D3D39",
":  c #503D37",
">  c #503F3B",
",  c #43403B",
"<  c #4C403E",
"1  c #54423D",
"2  c #59443F",
"3  c #4B4543",
"4  c #564541",
"5  c #5A4641",
"6  c #5D4944",
"7  c #544D4B",
"8  c #5C4D49",
"9  c #55514C",
"0  c #5B544E",
"q  c #5B5554",
"w  c #5E5A55",
"e  c #5D5A5A",
"r  c #614A44",
"t  c #624F49",
"y  c #64524C",
"u  c #68544E",
"i  c #625653",
"p  c #685651",
"a  c #635B57",
"s  c #6C5B55",
"d  c #625D5A",
"f  c #6B5E5A",
"g  c #715E58",
"h  c #64615D",
"j  c #6B635E",
"k  c #74635D",
"l  c #646262",
"z  c #6B6561",
"x  c #6D6966",
"c  c #6E6A69",
"v  c #7C6D66",
"b  c #716C6A",
"n  c #75716D",
"m  c #7B736E",
"M  c #757472",
"N  c #797673",
"B  c #7C7976",
"V  c #7C7B7A",
"C  c #827672",
"Z  c #837D76",
"A  c #827E7B",
"S  c #878177",
"D  c #83817E",
"F  c #8B837C",
"G  c #8D887E",
"H  c #858483",
"J  c #888785",
"K  c #8B8986",
"L  c #878788",
"P  c #888788",
"I  c #8C8B8B",
"U  c #928E86",
"Y  c #918F8C",
"T  c #969087",
"R  c #93918E",
"E  c #99948C",
"W  c #8E8E91",
"Q  c #908F90",
"!  c #8F9092",
"~  c #949393",
"^  c #999794",
"/  c #9C9995",
"(  c #969699",
")  c #97989B",
"_  c #9B9B9A",
"`  c #A19C96",
"'  c #A19E9A",
"]  c #A6A097",
"[  c #A5A19C",
"{  c #AAA69D",
"}  c #AEA89F",
"|  c #9C9DA0",
" . c #A5A4A2",
".. c #ABA9A4",
"X. c #A6A7A9",
"o. c #A7A8A9",
"O. c #B1ADA6",
"+. c #B1AEA9",
"@. c #B6B1A7",
"#. c #B5B1AB",
"$. c #B9B5AD",
"%. c #AFB0B2",
"&. c #B5B4B2",
"*. c #BCB9B3",
"=. c #C4BFB5",
"-. c #C2C1BD",
";. c #C9C9C8",
":. c #D5D4D2",
/* pixels */
"G D J N N D K ..#.^ Y K _ R Y / $.T Z C k p u r 6 r t y p k M A | =.' I K J H ~ ) :.=.~ R K ~ K ^  .",
"F D D D S J V ' { P M N I K U A Z g r : = $ $ + + + + + $ = < 6 g F J P H A P I P ;.-.~ ~ K H K K _ ",
"/ V V B B A N  ...K H H K Z k t : $ + $ & ; 1 1 4 1 1 1 = % + O + ; 8 f m c N H J $.+.P K K K I Y ' ",
"E S N B V V H ..#.J I N k 6 = + $ : 5 5 4 > > ; ; ; ; > 1 5 6 5 ; + O * 5 f B P J O.[ P ~ E J ~ ~ ' ",
"T A D B J A B [ @.G m u ; + $ 2 5 1 = $ * = ; > 1 1 > > > ; ; ; 4 5 1 # O ; y c H O...K K Y P U K _ ",
"J B H D A N M ^ } k 6 $ + 2 r < $ % > 4 5 6 1 1 > > & 4 r 1 5 4 > < 4 6 > O # 4 f ' { K ( E _ ~ I ^ ",
"K D G H H B H _ C : + & 6 1 $ % 4 6 4 r < < ; ; 1 1 = r = % 5 > > 4 4 > 4 4 * O < k ' ) _ / _ I R _ ",
"Z j h h w a a s ; + 1 6 * $ 1 4 r ; < 4 = < * ; > > = > % = 4 * = * 4 4 4 1 6 ; O > i a f z a z x G ",
"E D D Z N N k < + 2 6 $ & 6 & = 5 > % = * 2 = 4 4 4 1 > > ; = * % > > > > 4 1 r > O > q b M b B V T ",
"] T ' ' T v 1 + 1 1 1 % 6 6 = & = & > 4 6 r = 1 = = = 4 * 5 4 5 = 5 = $ 1 5 5 1 5 > O < d H P ( ~ _ ",
"' Y U ^ C 6 + 1 4 @ = * 6 2 < & % 4 r 4 4 5 % 5 2 ; 5 ; * 5 5 5 5 5 * 5 5 4 5 % < 6 ; O 4 b I W K  .",
"' ~ Y Z u $ & 6 % ; 6 2 2 1 ; 1 5 4 5 ; 1 6 5 4 r & 5 r 5 2 2 = 5 r 1 5 > > 5 5 4 4 6 % $ 8 N W P _ ",
"` ^ R k ; $ 6 2 % 1 * * ; 1 = 1 * % 2 = > * * * 5 * 1 * $ ; 1 * ; * & 1 ; ; = * * 5 4 5 O ; i I ~ ..",
"' / S t O 1 1 $ = 6 2 1 6 ; 1 6 4 4 5 = 4 r 1 5 4 ; 5 5 1 6 ; > r 1 1 r = 1 r 1 4 4 ; 6 < + 5 b I _ ",
"' / k = $ 2 ; 1 4 1 2 = 6 2 1 1 1 ; 5 5 1 5 * 2 5 5 > 4 * 5 5 2 1 > = r 5 1 5 = 1 5 1 1 6 $ ; q I  .",
"E S 0 + 2 : $ ; = ; 1 = 1 = % 1 ; ; ; = * 5 % > = & = 4 & > * & 1 > = ; = * 2 * > ; * * 5 < + 4 b o.",
"A y > $ r $ 1 r > 6 1 > r 4 1 r ; 2 r 1 4 5 = 6 r > 5 2 ; 6 6 > 6 : > 6 > 4 5 ; 5 r : 6 5 5 + ; 4 J ",
"K p $ ; 5 ; ; 6 * 5 1 1 ; 2 = 4 2 ; 2 = > 4 4 ; 4 & 4 4 > > 2 = 6 > > 2 : > 4 4 ; 5 = > 4 6 = % 8 Y ",
"A r + 6 = * ; 5 * 1 = = 1 > * 1 = = 5 * > ; = > 4 & > = = > > = > ; & 4 ; : > = ; 4 & 1 ; 4 4 + 4 c ",
"C 1 + 5 ; ; 5 4 > 6 6 > r 1 2 r 2 > r > 5 r > 5 5 > 5 r > r > 2 6 4 4 r : 4 r > 4 6 > 6 6 ; 5 + > q ",
"g = & 4 * = 4 1 ; ; 4 * 2 ; = 1 ; ; 2 ; = 5 * 1 1 ; = 4 * 4 > = : > > 4 > = 4 ; > > 4 & 4 & 6 $ = 4 ",
"g % : 1 = * < 1 ; 1 1 * 2 ; ; 5 = ; 1 ; ; 5 % 1 > ; 1 2 & 1 ; ; 1 ; ; > ; ; 6 % > > : > 4 = 6 ; % 4 ",
"y @ > 6 5 5 6 6 ; r 1 5 5 5 ; r 4 4 5 > 2 5 2 5 6 ; 5 5 2 5 5 ; r 4 4 r > 4 r > 6 r 4 r r 5 6 > # 4 ",
"t @ 1 r 6 > 1 6 * 1 ; = ; 4 = 1 > & 2 = > > = & 5 & 1 ; = = 5 = 1 ; & > > : ; ; % 6 r > ; 6 6 > # 4 ",
"r @ 4 r =   X 4 < > 1 > 5 ; = 4 > > 5 * ; 1 ; 4 4 & 1 1 > 4 1 * 5 > > 4 ; > > > > r 4 X   = r > + 4 ",
"6 @ 4 8 =   o 6 1 1 5 = 5 5 4 5 1 1 r 1 1 r ; 4 5 5 5 6 = 6 5 5 r > > r 5 4 6 ; 4 6 4 o . ; r 4 + 4 ",
"t @ 4 r 6 1 4 4 % * 5 & > = & > ; ; ; * & 5 ; > = = & 5 * 1 * & ; > = : & % 4 = > > 4 4 > r 8 > + 4 ",
"y @ > 6 1 > ; * * 5 > = 5 2 1 5 = > 4 1 2 4 * 4 5 > 4 > * 5 4 > 6 = > 5 > 4 6 % 4 4 > > > 4 6 > % 4 ",
"f % ; 5 = = = 4 = r 5 5 2 2 ; r 5 4 r = 1 r 5 4 5 * 5 5 5 4 4 = r 6 4 r ; : r 5 1 6 & > : > 6 & & > ",
"f % % 6 * * * 5 * 1 * * = 4 = ; = $ 2 = ; ; * $ 5 & 2 * * ; 1 * > & % > ; ; ; & % 5 = > & : 6 % ; - ",
"m > + 6 1 1 5 1 = 5 5 > 5 > ; 5 2 1 5 * 1 r 1 5 4 * 5 4 1 r > ; 6 4 > 6 = 4 r > 4 4 & 5 5 2 6 $ > 7 ",
"A 6 + 4 6 = 5 5 4 2 5 = 5 4 2 1 ; > r 5 1 5 * 4 6 5 1 4 & 5 2 2 4 4 ; r 6 > 4 = 4 6 5 > 6 5 4 + 4 l ",
"V p @ ; r = > = = ; 5 & > & % > : ; ; = % 4 % > = & = 4 % > = % > > ; ; & % 4 = > = & = 6 6 = % 3 M ",
"b i ; @ 8 % 4 6 > 6 > > 6 4 4 r ; 2 6 1 2 6 ; 6 6 > 6 1 ; r 6 > 6 ; > 6 2 4 6 & 5 6 > 4 r 6 + > - A ",
"_ H 8 + 4 4 < 6 = 6 4 > > 4 = 6 4 > 1 ; > 4 4 : 4 = 2 4 1 : 2 ; 6 4 1 4 > > 4 4 > 5 = 6 r > $ 1 e | ",
"Q W f - @ 6 ; 4 % < = & > > = : = = 4 & : ; = = 6 % > ; = : 1 = : & ; 2 & ; ; & = 5 % 6 6 % : ; M / ",
"/ _ A 5 O < 4 < > 6 6 ; r > 4 6 4 1 6 ; 4 r > 6 2 : 6 6 > 4 1 1 r 4 > r > 4 r 4 2 2 : 6 1 @ 4 q I ^ ",
"P Q W f ; + 6 5 1 : 4 = 4 > ; : > : 1 1 ; 4 * 1 1 > ; 4 = 4 1 : : > ; 4 4 : 4 ; : 2 r 6 + : < V I ~ ",
"' A A N 8 # % 6 = > 1 & 1 : ; 2 ; ; : ; ; 4 % : : ; > 4 = 1 ; = 4 > = > ; ; 4 % > 2 6 % % 3 q ! Q ) ",
"^ I ~ I b 6 O ; 5 5 2 4 6 4 > 6 > 4 r > 2 r 1 4 r ; 5 4 1 6 6 = r 1 4 r > 4 r : r r = $ 2 3 H L P ^ ",
"_ I K I I z 1 O 4 6 4 ; ; 1 = 4 ; * 1 * 1 ; ; * 2 % 1 ; = ; 1 = 1 > & > ; > 1 5 r > + 1 - V K K A / ",
"N x j j h e 8 ; O ; 5 = 4 ; = 4 : 1 = ; 4 1 1 1 2 & 2 1 1 1 1 = > > > 2 * : 5 5 > + 1 % , 9 9 7 q Z ",
"G E I H K J V f 3 O = 6 4 4 4 5 6 4 ; = 1 = : 1 1 1 2 1 & = < & * 5 5 r 1 r r ; + 1 ; h ~ P / I W %.",
"T ~ J J P N A [ f 4 O % 6 6 4 ; 6 < ; * = % ; 1 ; * & ; & = 1 & ; 1 r r r r % $ 2 ; M ( ~ ) | I J X.",
"R K H L Q H A #.E q 4 % O > 5 6 6 4 * * = = 1 2 % ; $ 1 & ; 1 ; 1 5 r r ; + & 5 < A X.P ) I L ~ ( ) ",
"K D V I / ) P ..{ H z 6 ; + @ 4 6 6 6 6 1 < 1 6 % 1 = 2 ; ; 2 2 r 5 > $ $ 1 < 3 V *...~ ) J W L Q ) ",
"_ K M N / / H  .{ H P V a 5 % O @ * 1 6 6 6 6 2 6 2 r r t r 6 1 = $ $ ; 3 3 e V W *.X.) | W ( L Q X.",
"^ H V V P H A ....P Q Q H M q 4 < # O @ % ; 1 1 1 1 1 1 = % @ @ % > 1 < 7 M | W W *.X.) | ( ( ( P | ",
"_ B H I R I ( #.{ ~ I I J T I A j 9 1 1 = % @ @ @ @ @ $ = ; 1 1 > 8 d H |  .W ( ( &.+.X.Q I | ) ) X.",
"S h m m N V J / } D n S V D G B ^ N h 9 1 < 1 4 4 6 4 < < * - 3 c ' P H V D V V J  .^ H H V H A H ' "
};
