/* XPM */
static char *pizza1647784947[] = {
/* columns rows colors chars-per-pixel */
"50 50 222 2 ",
"   c #261A1C",
".  c #2B2319",
"X  c #2E2527",
"o  c #532816",
"O  c #63241D",
"+  c #49302D",
"@  c #723734",
"#  c #35540E",
"$  c #3A6A11",
"%  c #4E5119",
"&  c #695014",
"*  c #4B6B12",
"=  c #467612",
"-  c #6C6D18",
";  c #505D21",
":  c #75502B",
">  c #527028",
",  c #706928",
"<  c #6B772A",
"1  c #58524C",
"2  c #724844",
"3  c #615D58",
"4  c #68635D",
"5  c #6D6964",
"6  c #726E6A",
"7  c #76726D",
"8  c #787572",
"9  c #7C7976",
"0  c #7D7C7A",
"q  c #B21912",
"w  c #92391E",
"e  c #B32A19",
"r  c #8E3630",
"t  c #B23530",
"y  c #B43631",
"u  c #C31E1D",
"i  c #CE301B",
"p  c #CB3729",
"a  c #E53926",
"s  c #8A5419",
"d  c #B0541A",
"f  c #8A6D1E",
"g  c #B77316",
"h  c #8E4C2E",
"j  c #98583A",
"k  c #AD5135",
"l  c #BB5836",
"z  c #867628",
"x  c #906E33",
"c  c #A6653C",
"v  c #B06F32",
"b  c #E1611A",
"n  c #D4512E",
"m  c #CF4B31",
"M  c #C65838",
"N  c #E84E34",
"B  c #EC5333",
"V  c #D46B34",
"C  c #E86D39",
"Z  c #993D43",
"A  c #925548",
"S  c #AC4F4C",
"D  c #BB5846",
"F  c #946A47",
"G  c #A86945",
"H  c #B46F4A",
"J  c #B8774B",
"K  c #A66856",
"L  c #AC7154",
"P  c #B67857",
"I  c #BC7C53",
"U  c #BB5F67",
"Y  c #837E76",
"T  c #817F7C",
"R  c #B8746B",
"E  c #CD544A",
"W  c #D85644",
"Q  c #C55A54",
"!  c #E55948",
"~  c #C96547",
"^  c #D7724C",
"/  c #C76855",
"(  c #CB7656",
")  c #D47150",
"_  c #EB734B",
"`  c #E67350",
"'  c #C55E62",
"]  c #D37268",
"[  c #CA7872",
"{  c #ED7A63",
"}  c #3B8C0F",
"|  c #508A13",
" . c #6C9419",
".. c #5A9D25",
"X. c #738B2F",
"o. c #7B8340",
"O. c #76AC4B",
"+. c #86862E",
"@. c #8E9531",
"#. c #A49A23",
"$. c #A89233",
"%. c #93AA2C",
"&. c #D68A1B",
"*. c #E6952A",
"=. c #D4A02A",
"-. c #ECAD2D",
";. c #B8C13C",
":. c #F0CE34",
">. c #908B4D",
",. c #9A964A",
"<. c #AE8E4B",
"1. c #BB9759",
"2. c #A6B14E",
"3. c #83817E",
"4. c #8B867D",
"5. c #B79371",
"6. c #B7A965",
"7. c #B2B672",
"8. c #D48B49",
"9. c #C78859",
"0. c #D48959",
"q. c #CA9656",
"w. c #D6965A",
"e. c #F28847",
"r. c #EC904D",
"t. c #D2AB58",
"y. c #F0AA56",
"u. c #C88866",
"i. c #D18A6E",
"p. c #CB9569",
"a. c #D69768",
"s. c #D68A73",
"d. c #CD9974",
"f. c #D69A78",
"g. c #EE946D",
"h. c #D2AC6B",
"j. c #DAA878",
"k. c #DAB47A",
"l. c #E9A76A",
"z. c #F2AF6C",
"x. c #E7AA79",
"c. c #E8B87A",
"v. c #F4B777",
"b. c #B3C05F",
"n. c #B5CD6F",
"m. c #DBC55F",
"M. c #F3C579",
"N. c #F0D772",
"B. c #858483",
"V. c #888785",
"C. c #8B8986",
"Z. c #878788",
"A. c #888788",
"S. c #8C8B8B",
"D. c #928E86",
"F. c #918F8C",
"G. c #93918E",
"H. c #98938A",
"J. c #8E8E91",
"K. c #908F90",
"L. c #8F9092",
"P. c #949393",
"I. c #999794",
"U. c #9C9995",
"Y. c #969699",
"T. c #97989B",
"R. c #9C9B99",
"E. c #BE8F8A",
"W. c #A29D95",
"Q. c #A19E9A",
"!. c #B5AA8F",
"~. c #A7A39C",
"^. c #9C9DA0",
"/. c #A6A6A6",
"(. c #ACAAA4",
"). c #B1ADA7",
"_. c #B6B2AB",
"`. c #AFB0B2",
"'. c #BAB7B2",
"]. c #D8968A",
"[. c #D29391",
"{. c #E89B86",
"}. c #DAA984",
"|. c #DBB889",
" X c #CFA794",
".X c #DCB796",
"XX c #E4A987",
"oX c #F9AB8A",
"OX c #E5BA89",
"+X c #F3B886",
"@X c #EDB396",
"#X c #E6B896",
"$X c #D0B6A8",
"%X c #E2ACA2",
"&X c #E8B6A7",
"*X c #D3C68A",
"=X c #E9C48A",
"-X c #F5C988",
";X c #ECCC97",
":X c #E7C698",
">X c #F4CA97",
",X c #EFD691",
"<X c #F5D698",
"1X c #F8E286",
"2X c #F9E998",
"3X c #D5CAB2",
"4X c #E8C7A7",
"5X c #F3CAA8",
"6X c #EBD5A7",
"7X c #F5D7AA",
"8X c #E9CAB8",
"9X c #EBD5B8",
"0X c #F4DAB6",
"qX c #FAEDAE",
"wX c #F7E6B5",
"eX c #F3E3BC",
"rX c #E8D7C7",
"tX c #F6D8C3",
"yX c #F6E6C5",
"uX c #FBF3C8",
"iX c #E6E6D9",
"pX c #F2E7D3",
/* pixels */
"4.3.V.8 9 3.C.(._.I.G.V.R.G.G.U._.H.S.V.S.L.P.L.).~.S.S.V.S.K.K./.'./.S.C.Z.Z.L.^.iX'.T.G.C.P.C.I.~.",
"4.3.3.3.Y V.0 Q.~.V.7 9 S.V.S.S._.P.S.0 S.S.j j c c k j C.Z.0 3./.$XP.Z.J.o.Z.Z.Z.'.'.Y.P.V.B.C.A.R.",
"U.Y 0 9 9 Y 8 /.(.C.B.B.V.C.G.P._.G.G J 9.9.f.j.j.d.|.f.d.u.I G j '.G.B.Z.6 8 Z.B._.`.A.F.V.V.F.F.Q.",
"H.3.8 9 0 9 B.(._.B.J.0 B.3.3.j J d.c.+X+Xx.x.c.x.f. XXXf.XX4X#Xd.P G S.B.0 Z.Z.A.(./.S.K.H.B.K.P.Q.",
"G.0 Y 9 Z.T 9 ~._.C.V.B.Y j H a.=X@Xr.l e y M l u.l D  X}./ E ( }.9X@Xu.H S.B.B.B.).).C.F.F.A.H.A.R.",
"V.9 B.3.T 8 8 I.).3.V.S.c p.5XXX_ C ! ! p E g.l.N.XX%XrXpX$Xk t k ~ XX4X}.( A 3.B.).Q.A.Y.H.W.P.F.I.",
"C.3.Z.V.B.9 T /.).G.G.G j.0XXXm C g.{ C n V *.:.m.0.! s.7.[  XtX9X/ l l i.#Xd.H S.)._.U.U.Q.Y.S.F.Q.",
"3.4 3 3 3 3 3 Y U.j I XX0Xi.m _ _ @Xg.q.^ V *.+.> d.s.G F Q pXrX].XXf.D k / 7X|.P Q.H.4 4 4 3 4 5 4.",
"H.4.Y Y 9 9 3.R.j H }.7Xs.P { _ g.oXq.X.a.-.l * | 3X3X+.j ] rX%X.X XK S S e ) wX|.P W.9 9 8 6 Y T D.",
"~.D.Q.Q.F.R.G.h 9.#X}.XX8X!.}.e.g.] X.<.-.V k # | n.n.h u ) 5X9XtX7.: @ @ S M k.@X}.P A.A.A.A.P.K.Q.",
"Q.F.D.I.J.I.G.H 4X<XM G $X9Xx._ C ~ , C *.b m & = +.$.0.s.E N @X5Xm.< R $XrX[.[ i.7X}.L S.K.S.K.A./.",
"W.P.F.B.F.F.G }.z.M e / 5.&X:Xv.8.l d V b *.V D s k C ( [.[ s.a n h.+.K  X8X.X3X#Xi.7Xd.L S.S.K.A.R.",
"W.I.G.V.P.j a.+Xn e ] pXyX|.wXqXx.l k m [ 9.-.-.M ( [ r r >.!.,.s n +.k R u.s.XX{.~ ) 7X9.S.K.K.K.(.",
"Q.U.G.P.P.9.-XC e t E yXpXrXOXuXOX: - @.9X$X,X:.*.0. XR 5.O.O...- e x M s.A 2 M _ _ n @X.XL K.K.F.^.",
"Q.U.I.H.G h.y.i i e E yXpXwX^ f.4 | | O.pXpX9X;Xt.~ ] D X.....} x h < L D   X F g.e.C ` 8Xu.B.K.K./.",
"H.C.Z.D.I >Xv.i.E E p XXoX] E y v * # < .XrX!.6.| d m l | | } > k x +.>.~ O @ f.+Xg.e.n XX.XL B.A.(.",
"Y 3 5 c w.M.>X0XQ p a N m ! N n n P s g 8.[ x } } d p r < X.7.Q k , ; , ( ) .X5X5X@Xr.V M 9Xp.3 3 C.",
"F.9 S.<.v.e.5X@Xp a N ! E ! ! V V V M &.:.*., $ } z r K $X8X{ p j + # : ~ g.g.+X+Xg._ ) t .X}.K I./.",
"S.9 8 p.+Xm ' E B B N {.! g.C v @.c ^ a.t.=.&.- * X.@.K R W a k O O o X A r.` { 0.^ { W e ( @XP V.P.",
"F.9 j j.+Xp e n B B { g.{.! B m X. .6.9X,.@.N.m.$.s z v u i M t Z r X X + D _ V v i./ [ m E :X5.F.I.",
"F.B.G +Xv.i u W _ B B g.{._ a m f  .X.7... .n.9X XI l i N 5.' m S t Z X @ [ U Z U #X%X$X[./ 5Xu.P.K.",
"R.C.G OXs.e q n C _ ! { E W m p s $ = = = X.X.8X Xu.N p ( }.%X' U S A R [.[.U A  XpXrX$X%X/ 9Xd.K R.",
"G.C.H +XB q t C ! N ! a p y d & - $ $ % *  .< h.pX~ k x F [.rXR ] K F 5.U R : X 2 $X XE.R M 4Xj.L Q.",
"G.G.I +XC q m y.-XXX] p w % # # = $ = % O v 9.8.j.c , * < [.&X[.K ; > > : R A   @ : R [.U Q 0X[.L `.",
"5 1 ( l.0.k M 0.s.%XE.@ & : >., % : , s t v $.9.w.$.x , z 9.i.j.I x J < < K d.R ( 9.j..Xi.d.|.p.L D.",
"D.4.<.-Xz.g.' S ' ' X X o s >.X.* f w y h z f c <.q.$.- < ~ l.v v V t.2.X.@.6.k.+X2X2X2XwX0X-Xp.L (.",
"~.V.I =X-XOX$X9X&X{ @ + * | |  . . .X.$.$.H p.9.h.7.h.f & V l e ` <.2.2.k.N.*XwXqXqXqX2XuXqXv.9.K ^.",
"V.V.G OX+X_ 3XrX[.' ' ' ,.X. . . . .@.p.$.@.q.%.m.*X<Xw.+.+.d a r.#.;.m.t.1X2X,X2XN.r.y.qX7X=X( G `.",
"P.C.G }.5XB XX0X!.[.] ] &Xp.5.>.v k g.5Xh.2.;.%.*Xk.qX;X<.<.a.C t.#.t.<X1X1X1X2XqX7XC e.qXwXc.1.S./.",
"C.F.F a.>X_ ) D ' [.tXtX{.l 1 1 <.e.g.4Xy.m.=.%.6.7.eX7X=Xh.h.t.t.t.z.5XqXqX2XqXwX5X>X1XuXeXOXI Z.^.",
"P.G.j q.>Xe.p y y t &X%XE r   . q.y.y.<. .2.t.t.%.6.=Xk.k.c.7.<.2.,X#XXX<X2XqXqX7XwXyXqXuXyX}.P P./.",
"V.Y 4.J +Xg.u y y k &X[.t t @ r r.-.v =  .7.N.h.%.6.|.6X7X0X6Xh.q.l.^ 8.z.g.z.M.-XM.<XuXuXeXd.G T./.",
"3.8 9 G h.z.a m t D E.5.Q Q Q ) _ x | | - %.n.;Xt.p.:X=X*Xj.h.*X*Xa.g.g.g.g.g.g.y.b r.qXuX>X9.T 9 I.",
"7 5 4 j 9.OXe.C / K X + R s.` E x - - & & - %.b.<.d.*X,.< < ,.<XwX>Xg.g.oXoXoXoXz.y.M.uXeXx.( 5 6 S.",
"R.I.R.G.J x.v.r.~ K   . S Q ' H : : d d 8.] H h w h.*X> $ $ X.6X4Xh.r.j.v.g._ g.-X7XqXqX>X9.G P.K.R.",
"G.S.S.B.A q.<Xy.r.~ r r y p D H d j ( V =.s.].[ s p.,X7.X.> X.:X=XM.;Xh.w._ B e.<X-X7X7Xx.<.L.B.Z.I.",
"I.R.J.Z.0 K j.qX7Xe.n k p ^ t.t.&.t.OX,Xf.P ( M v 6.=X=X@.X.*X;X;X6X:X>.< 5.&Xv.<X<X;X+Xw.G J.K.P.I.",
"V.J.J.Z.0 h 9.6XuX7Xr.M ( w.&.8.y.t.y.qX X9Xj.r.q.p.|.:X7.h.:X=Xk.OXx.X.$ > h.2XwXqXc.a.P K.K.P.V.P.",
"~.0 o.Z.0 0 A a.0XuX7Xg.=X~ l w.a.8.*.r.[ .X4XwX*X6.,X*XOXx.>Xc.OXx.OX|.>.> o.|.<X+X0.I Y.F.A.P.J.Y.",
"I.S.^.J.Z.J.J.G f.4XOXf.&Xw.b b C *.V m w G >X<Xb.X.n.=Xk.x.5X0X5Xh.h.k.}.6.h.}.j.a.9.G P.S.S.A.S.I.",
"U.S.V.S.P.K.P.Q.H w.+X>Xa.M b &.y.y.z.w.j h k.h.#., +.|.OX4X@Xk.}.q.M.6X:X:X:X0XXX1.F W.P.I.V.V.B.T.",
"9 5 5 4 4 3 5 7 4.G w.v.>Xg.l ~ M.2X2Xp.A j 7.n.#.x ,.#X:Xl.h.h.q.*.|.7XeXyXeX#X9.G 3.1 1 1 1 1 1 Y ",
"4.H.S.B.V.V.Z.~.W.C.c 0.l.<XM.8.8.M.c.:XG v ,.2.q.q.:X:Xc.|.|.*X|.c.;X6XyX0X|.I A '.~.F.I.Z.R.S.J.`.",
"H.P.V.V.V.8 T _.(.Y 9 j ( a.c.-XXX) M d.j 1.*X6X9.i.:X*X;XM.;X;X6XyXyXyX4Xp.J K.F.).(.Y.P.Y.T.S.B./.",
"K.C.B.C.J.T 3._.Q.0 B.0 : c J h.4X7X>Xs.k XX@Xa.) d.6X6X:X-X7X7XyXyX4Xj.( F K.^.^._./.Z.Y.S.Z.P.T.R.",
"V.3.0 S.R.I.V.(.~.C.V.V.C.C.h c <.j.+X0X>X>X+X#X;X#XyXyX0X-X>X9X4Xf.9.J Y.Y.Y.K.Y.'./.T.Y.Z.J.Z.L.T.",
"I.Z.8 8 U.R.B.(.~.V.C.K.P.P.R.~.h G I 0.f.j.+XOXOXa.}.XXk.f.i.9.G c F.P.J.^.Z.Z.J.'./.T.^.J.Y.Z.J./.",
"I.B.0 0 Z.B.Y (.(.V.K.K.Z.H.P.R.).I.B.h j c H I J J I I L G G 6 7 (.R.T.Z.J.^.J.P.'./.Y.^.Y.Y.Y.Z.R.",
"U.0 B.S.G.S.Y._.~.P.S.S.V.D.I./.(.I.G.S.S.U.R.P._./.F.4.9 B.0 B.V.).I.R.^./.K.Y.I.`.)./.K.S.R.T.T./.",
"4.3 8 7 8 Y V.R.(.T 7 Y Y 3.4.9 U.C.3.T 4.3.V.B.Q.W.9 8 6 6 7 7 V._.V.B.0 3.9 0 Z.(.I.Z.B.9 B.B.Z.^."
};
