/* XPM */
static char *result[] = {
/* columns rows colors chars-per-pixel */
"50 50 256 2 ",
"   c #33241D",
".  c #342325",
"X  c #492A1C",
"o  c #50302E",
"O  c #6C342C",
"+  c #62351D",
"@  c #3B6D0E",
"#  c #4A5716",
"$  c #545817",
"%  c #73501A",
"&  c #486913",
"*  c #487515",
"=  c #577716",
"-  c #586C1A",
";  c #6E6C17",
":  c #724E33",
">  c #5B7526",
",  c #596A24",
"<  c #677628",
"1  c #716F2A",
"2  c #4E4E24",
"3  c #67635E",
"4  c #716259",
"5  c #6C6864",
"6  c #746E68",
"7  c #74726E",
"8  c #7C736D",
"9  c #7C7976",
"0  c #7E7C7A",
"q  c #787573",
"w  c #6B4643",
"e  c #BA291B",
"r  c #953B35",
"t  c #BB382B",
"y  c #AB3830",
"u  c #B21C15",
"i  c #C6392A",
"p  c #CD3629",
"a  c #D33620",
"s  c #91511B",
"d  c #985837",
"f  c #8C502A",
"g  c #BA5929",
"h  c #B94938",
"j  c #B85A34",
"k  c #AC4E2E",
"l  c #8B6C28",
"z  c #9A672B",
"x  c #8B7736",
"c  c #98763A",
"v  c #937230",
"b  c #A7683A",
"n  c #AF6E36",
"m  c #9C5F19",
"M  c #C6442C",
"N  c #C64735",
"B  c #D84A34",
"V  c #D85937",
"C  c #CF552E",
"Z  c #E75033",
"A  c #C8683A",
"S  c #DA693B",
"D  c #CB7230",
"F  c #E4673A",
"G  c #E66F30",
"H  c #D1751C",
"J  c #91534D",
"K  c #B05249",
"L  c #98664A",
"P  c #9A6C54",
"I  c #9A745C",
"U  c #8E6E48",
"Y  c #A96948",
"T  c #B6764C",
"R  c #A86857",
"E  c #B9695A",
"W  c #A87558",
"Q  c #B77A56",
"!  c #B37047",
"~  c #86756A",
"^  c #847C75",
"/  c #817E7B",
"(  c #8A7D75",
")  c #957A6E",
"_  c #A67B67",
"`  c #B97A66",
"'  c #AF7069",
"]  c #C65747",
"[  c #D95946",
"{  c #C9564F",
"}  c #E85B44",
"|  c #C76747",
" . c #D66947",
".. c #D77749",
"X. c #C76658",
"o. c #CA7556",
"O. c #D67758",
"+. c #D26F52",
"@. c #E76847",
"#. c #E26C5A",
"$. c #E67854",
"%. c #E97449",
"&. c #C76764",
"*. c #C87567",
"=. c #CB7772",
"-. c #E67C64",
";. c #3D860F",
":. c #518A17",
">. c #6B8D19",
",. c #778629",
"<. c #728E30",
"1. c #61A331",
"2. c #748942",
"3. c #908D34",
"4. c #A88935",
"5. c #A89732",
"6. c #9CA934",
"7. c #AFAC3C",
"8. c #BF881D",
"9. c #D98537",
"0. c #DA8E36",
"q. c #E78E30",
"w. c #D4B031",
"e. c #8F924A",
"r. c #B98549",
"t. c #BC8558",
"y. c #B99755",
"u. c #AB954D",
"i. c #91A44C",
"p. c #A7A653",
"a. c #AEAF52",
"s. c #84817E",
"d. c #8B837D",
"f. c #8C8275",
"g. c #92857C",
"h. c #96877B",
"j. c #9C8765",
"k. c #A9836B",
"l. c #B78567",
"z. c #B28E71",
"x. c #B6AA69",
"c. c #8BAA60",
"v. c #D88C48",
"b. c #D69947",
"n. c #C7895A",
"m. c #D68759",
"M. c #CA955C",
"N. c #D19151",
"B. c #E8875B",
"V. c #E79359",
"C. c #EE904D",
"Z. c #D2AC53",
"A. c #EAAB52",
"S. c #C98A65",
"D. c #D58868",
"F. c #CB9667",
"G. c #D69968",
"H. c #C58778",
"J. c #CC9874",
"K. c #D69A79",
"L. c #D58779",
"P. c #E79867",
"I. c #F49A69",
"U. c #E79778",
"Y. c #F69C79",
"T. c #EA8868",
"R. c #C7A769",
"E. c #D9A56A",
"W. c #C5B568",
"Q. c #C7AA76",
"!. c #DAA679",
"~. c #C8B676",
"^. c #D9B47B",
"/. c #D7B267",
"(. c #EBA76C",
"). c #E7A976",
"_. c #E7B67A",
"`. c #F4B877",
"'. c #EDAE6E",
"]. c #CDC155",
"[. c #D0C576",
"{. c #EBC875",
"}. c #B6C467",
"|. c #858483",
" X c #8A8683",
".X c #8B8986",
"XX c #8C8C8B",
"oX c #858688",
"OX c #948B85",
"+X c #928E8B",
"@X c #968982",
"#X c #93918D",
"$X c #9B938C",
"%X c #908F90",
"&X c #949393",
"*X c #999693",
"=X c #9B9995",
"-X c #9C9B9B",
";X c #969699",
":X c #8E8F91",
">X c #A49C95",
",X c #A19E9A",
"<X c #AA9E94",
"1X c #A6968C",
"2X c #A4A19C",
"3X c #ADA19A",
"4X c #B4A690",
"5X c #ADAAA4",
"6X c #A8A7A5",
"7X c #B1AEA8",
"8X c #B6B4AF",
"9X c #9FA0A2",
"0X c #D69985",
"qX c #CC9489",
"wX c #E29C8B",
"eX c #D9A687",
"rX c #DCB788",
"tX c #D9A897",
"yX c #D8B697",
"uX c #CBAB85",
"iX c #E5AB87",
"pX c #F3AA86",
"aX c #E4B38B",
"sX c #E7B887",
"dX c #F2BB87",
"fX c #E6B996",
"gX c #E9B099",
"hX c #D8B9A6",
"jX c #DBACA1",
"kX c #E3B9A8",
"lX c #DDC794",
"zX c #D2C48C",
"xX c #E9C68A",
"cX c #F3C786",
"vX c #E9C796",
"bX c #F2C998",
"nX c #E7D09E",
"mX c #F6D996",
"MX c #F5D38B",
"NX c #F7E490",
"BX c #D7C7B1",
"VX c #E8C7A4",
"CX c #F2CBA3",
"ZX c #ECD5A8",
"AX c #F4D8A6",
"SX c #E4CAB4",
"DX c #F3DBB6",
"FX c #EED2B2",
"GX c #F8E6A6",
"HX c #F6E5B5",
"JX c #FAF0B1",
"KX c #ECD9C5",
"LX c #F7E9C2",
"PX c #FAF5D2",
"IX c #C9C8C5",
"UX c None",
/* pixels */
"UXUXUXUXUXUXUXUXUXUXUXUXUXUXUXUXUXUXUXUXUXUXUXUXUXUXUXUXUXUXUXUXUXUXUXUXUXUXUXUXUXUXUXUXUXUXUXUXUXUX",
"UX-XoX|.|./ |.XX9X;XoX0 / |.|..X2X*X9 7 7 7 q / $X2X.X.X|.d.s.|.#X#Xs.d.s.s.q 0 =X2X#Xs.9 7 q 5 ( UX",
"UX6X;X;X;X:X;X6X8X6X;X:X;X-X;X;X3X+Xs.9 ( ~ f.OX<X3X$X$XOX(  X#X2X2X,X#X.X|.XXXX2X7X-XXXXXXX|./ *XUX",
"UX-XXX:X;X;X-X-X8X6XoX;X;XXX:X-X2X( ~ P W W n.t.Q n.n.T ! L L g.$X>X-X*X#XXXXXXX-X5XXX|.XX0 9 |.*XUX",
"UX9X:XXX:X:X-X-X8X6X:XoX&X;X+X@XW Q S.K.!.rXfXyX!.sXfXsX!.K.G.n.Y P $XOX:X:X:XoX=X2X:X&X;X/ q |.#XUX",
"UX;X:XXXXXXX;X;X7X7X;X:X%X@Xl.S.!.VXFXbXcXAXDXDXaXaXaXdXvXaXbXdX^.y.Y J ( / oX:X=X3X:X:X;X%X/ s..XUX",
"UX-X:X:X:X:X:X;X6X6X;X+X_ Q !.VXKXHXAXZXcXbXnXVXJ.O.).aXJ.Y L.iXdXfXG.Q K U 9 2.$X7X#XoXoXoX XXX+XUX",
"UX6XXX%X;X&X;X;X7X<X( z.J.vXDXHXDXZXnXvXxXxXlXxXF.M.zXW.T Y J...G.(.`._.G.! P 8 *X7X+X2. XoXXX+X+XUX",
"UX-X9 q 0 q 9 |.*Xk.Q !.FXLXDXnX'.!.^.rX^.sXfX~.r.u.a.p.b R sXMX{.V.B.(.dX(.n.W OX*X/ 9 9 q 0 d.d.UX",
"UX|.3 5 5 5 5 8 I t.eXZXDXDXZXvXZ.N.R.!.sXsXyXe.l 5.W.x.d L E.MX{.A.A A P.dX'.n.W f.^ 7 7 7 7 q s.UX",
"UX;X|.oXXX&X$X_ t.G.aXvXrXzXvX{.E.^.vXvXfXsXrXp.,.6._.^.d d ..b.C.q.H C D.iXdXsXF.l.+X:X+XXX+XXX;XUX",
"UX;XXXXX.X+X@XT M._.rXQ.e.u.Q.rXE.sXbXbXpX^.zX[.p.[.AXvX` j G 9.9.v.D A K.iXsXFXVXS.I d.|.oXoXoX=XUX",
"UX*XXX&XXX+Xk.F._.mXAX^.<., e.Q.rX^._.bXeX~.lXvXW.^.sXgXkXeX{.0.V.Z.v.D D.D.P.AXLXbXl.P ^ s.|.oX#XUX",
"UX&XXX%X.X_ D._.MXAXmXdXz.< < R.vXfXvXxXp.u.sXxXR.n ..S.eXeXmX_.Z.0.0.b...N V B.AXHX^.Y 8 |.:X&X#XUX",
"UX;XXXXXh.Q '.bXnXMX`.I.-.Q y.rXnXxXvXx.<.<.x.xXF.z o.L.m.b.V.M.n D n.| M y r ] P.`.xXM.P / XX+X*XUX",
"UX=XXXOX_ S.bXHXDXmX`.%.%.P.K.E./.xXlXi.* = 2.zXF.f Y *.D.D g z f d ! { N O X f | C.`.E.T g.&X&X*XUX",
"UXXXq ^ Q ).DXHXcX`.`.Y.Y.pX).V.'.ZXAXp.= - 3.~.R.Y u.3.v l % ; 1 d { #.=.w   w E %.C._.M.P 8 q s.UX",
"UX+Xq ~ D.mXLXmXq.q.I.Y.Y.Y.Y.I.P.lXlXW.x.x.~.yXR.Z.[.}.,.; = ; v  . .X.X.' ~ R K i Z P.E.! 6 8 9 UX",
"UX6X+XW !.HXPXGX`.`.`.`.I.I.V.B.V.R.~.lXZXnXnXrXx.a./.[.p.>.= 8.0...r r t &.jX=.y t e B.).t.( / |.UX",
"UX9X+XQ rXLXPXJXHXAXAXGXmXMX_.!.sXW.y.W.rXxXrXxXx.6.Z.Z.p.>.5.b.A.L X o y =.kX*.y t p F dXG.L  X#XUX",
"UX-X Xt.fXLXJXmXbXDXHXGXGXJXNXdX/.Z.Z.R.R.^.nXZXx.a.7.w.].W.sXI.v.U o w &.gXKXtX&.K +.%.dXG.Y  XXXUX",
"UX6Xd.S.cXHXmXC.I.AXGXNXNX{.NX_.5.Z.0.m.y.F.vXDXzX~.6.7.a.^.fXB.n 4.j.y.wXwXL.qXqXtXeX@.pXrX! .X+XUX",
"UX5XW n.cXAXNXC.A.NXNXNXNX{.].Z.7.b.G g v v M.MXzX[.6.y.3.5.M.3.>.>.>.3.e.X.&.&.qXkXSXT.pXsXT f..XUX",
"UX>XW S.cXHXJXNXGXJXHXnX{.[.}.a.u...i g D ; l Z.x.Z.y.M.T 5.4.3.>.>.>.:.= 2 O R 0XkXhXaXdXxXt.g.=XUX",
"UX<XW G.bXFXGXGXNXMXsXQ.p.3.i.a...A n m.o.1 ; 4.M.u.d l l f k s ; * <.x %   . J &.&.E L.'.{.y.f..XUX",
"UX$XQ J.rXJ.0XrXJ.n.` ` ` x < U c ! G.L.S.x < l 4.N.v.4.n r f % % & 1 x % O J qX0Xm.| h O.(.o.4 7 UX",
"UX6XQ eXgX{ ` qXW : o O R P 1 > , L 1XgX0Xx - 1 ! !.N.r.z + # * & & # # % y ] U._.I.S e C ).n.d.XXUX",
"UX>XW eXgX{ 1XqXhX1Xw o R ' ` I L E =.hXtXY z g o.SXQ.,.>.& & @ & % s t i p Z } F F M u V Y.o..X#XUX",
"UX&X_ !.kX*.tXBXKXSX' J =.qX' J J &.&.qXeXo.i B *.hXlXi.< = > * - s a B } #.@.@.G F e u O._.Q d.=XUX",
"UX&XOXK.gXX.qXtXtXK.K ] &.J o O r y h { o.B N j T x.nX}.<.1.x.<.>.z Z Z -.pX-.Z @.} p a P._.T ( +XUX",
"UX*X#Xz.iX] ] &.+.o.A @.#.J . . O r y N p i b l l 3.w.Z.6.p.lXu.,.v Z } #.wXT.Z Z B t p Y.!.P 8 XXUX",
"UX;Xh.` eX+.t } $.m.G.T.-.X.O X X O r B #.H.W v ,.* - 9.w.A.N.| n 4.A #.#.#.@.Z Z [ *.[ (.F.f.0 .XUX",
"UX=X( I eXeXM ..B.pXbXpXU.O.d # 2 f h O.uX4XR r m * @ l b.w.H A  .D V } [ [ Z a p wXCX'.(.r.f.7 d.UX",
"UX+X6 6 J.yX| S I.pXCXeXE ! L < 1 d d e.<.= f i m :.1.j.qXy.l % d M N [ [ @.Z p [ wXcXcXG.W 8 6 s.UX",
"UX6XXX Xk.eXwXS G I.).J   r T 3.l d > ;.:.>.b  .j 3.~.BXKXzX>.@ > Y ] O.gXbX=.N p [ P._.n.h.XX+X=XUX",
"UX,X%X%Xh.H.fXB.G B.O.: o J | x s f :.1.1.e.R L.m.b.{.ZXKXBX2.:.,.x.iXiXPXPXwXi e p V.(.k.OX#X=X,XUX",
"UX2X+X%X+Xk.eXiX ...$.E P ` | v k s <.c.c.P K qXm.9.A.{.E.J.b s Y nXHXVXKXPXeXt e ..).t.h.%X#X=X-XUX",
"UX-X:X%X:Xh.S.fXU.L.fXtX0XqXE x r.j A S.k.R K +.K j D q.0.S M g | ).mXVXyXyX*.t  .(.F.I OX.X+X&X>XUX",
"UX-XXXXXXXXX_ J.aXiXeXtXkXSXz.U p.P.-.#.+.L.m.n v ; s C 9.q.H z A %.(.vXhXl.k +.sXJ.k.OX#XXXXX#X=XUX",
"UX,X:X%XXXXX X_ K.aXK.H.=.z.J : u.ZXFXpX[ ] Y p.p.:.$ k H q.n x O.%.B.yXBXtXD.iXaX! f.=X#X=X=X#X2XUX",
"UX#X Xs.9 0 0 d.z.J.vX!.N r J J z.lXkXKX=.h l zXzX:.& j q.b.3.y.Y.B.$.S.qXfXfXK.Q I  XoXd..XOX X$XUX",
"UXd.6 5 3 5 5 q *Xz.!.fXD.h h X.0XeXhXKX=.L c 0X4X>.; 9.9.n.t.).pX$.@.| K.fXK.T I g.6 5 3 3 5 6 d.UX",
"UX#X|.s. X X.X#X5X>Xk.J.iXD.! ] o.yXFXSXH.x.Q #.M.a.w.q.S V O.T.-.F  .iXvXJ._ ) >X,X/ 7 q 9 9 q s.UX",
"UX=XXX&X=X*X&X*X5X-Xs.I Q J.eXK.X.X.X.X.qXBXSXwX).{.A.m.V B } @.@.$.iXfXF.W  XoX-X2X|.q s.s.|./ .XUX",
"UX*XXX#XXXXXXX#X7X,X|./ d._ S.eXfX0Xo.] o.tXtX*.| M.| | h t V B.Y.).J.Q P ^ oX X>X6Xs.q |.0 2.oX.XUX",
"UX,X#X+X.X#X+X#X5X>XoXoX|.^ g.k.S.J.eXeX0XK.eX0XD.!.!.P.G.P.).).K.r.P ~ ^ / oXoX>X7XXX0 0 9 0 oX#XUX",
"UX,X%XXXoXOX.X+X7X2X|./ 7 9 |..X<X_ Y l.F.J.K.rXJ.!.!.G.S.n.n._ 1X<XOXXXoX X|.oX,X6X X/ 0 q 0 0 $XUX",
"UX=X.X|.|..X&X,XIX7XoXoX|./ |.+X8X3X( ( g.@XY Y Y ! L R h.g.^ .X-X6XXX.XoX|.q 0 >X6XoXs./ 0 |.0 .XUX",
"UX2X*XXXXXXX#X2XIX8X=X:X|.|..X=X8X7X&X:XXX.X Xd.1X2XOX+X:X.X|.+X2X5X*XXX*X#X.XXX6X5X#X|.9 9 |.s.d.UX",
"UXUXUXUXUXUXUXUXUXUXUXUXUXUXUXUXUXUXUXUXUXUXUXUXUXUXUXUXUXUXUXUXUXUXUXUXUXUXUXUXUXUXUXUXUXUXUXUXUXUX"
};
