/* XPM */
static char *raf1647784946[] = {
/* columns rows colors chars-per-pixel */
"50 50 211 2 ",
"   c #04190B",
".  c #13100D",
"X  c #161808",
"o  c #0B1C10",
"O  c #351414",
"+  c #19240A",
"@  c #042C12",
"#  c #092A12",
"$  c #112112",
"%  c #073616",
"&  c #043D1A",
"*  c #0A3E1C",
"=  c #19371C",
"-  c #143B1C",
";  c #252C09",
":  c #35390C",
">  c #2A2F14",
",  c #312D1E",
"<  c #24361A",
"1  c #0F3C21",
"2  c #133E22",
"3  c #1B3A25",
"4  c #243E2B",
"5  c #363929",
"6  c #5A2C1B",
"7  c #463A1C",
"8  c #473C29",
"9  c #51302C",
"0  c #4F3433",
"q  c #6E2A29",
"w  c #75352F",
"e  c #693733",
"r  c #783836",
"t  c #02441B",
"y  c #08411E",
"u  c #02491E",
"i  c #134118",
"p  c #35430B",
"a  c #284819",
"s  c #2A5118",
"d  c #335013",
"f  c #0D4322",
"g  c #034C22",
"h  c #074925",
"j  c #134324",
"k  c #174628",
"l  c #035225",
"z  c #065329",
"x  c #035B2C",
"c  c #15522E",
"v  c #1B4C33",
"b  c #075E31",
"n  c #0A5931",
"m  c #185A37",
"M  c #274429",
"N  c #3A4727",
"B  c #2D5628",
"V  c #284937",
"C  c #39493D",
"Z  c #275A37",
"A  c #03612E",
"S  c #036433",
"D  c #0A6537",
"F  c #046A37",
"G  c #056E3A",
"H  c #0C683B",
"J  c #186739",
"K  c #04723D",
"L  c #1D7639",
"P  c #316830",
"I  c #4A4919",
"U  c #485418",
"Y  c #6F5413",
"T  c #52611D",
"R  c #78720E",
"E  c #736F15",
"W  c #45482D",
"Q  c #534326",
"!  c #5A482B",
"~  c #4D5629",
"^  c #464635",
"/  c #4B4A33",
"(  c #49453B",
")  c #4C4C3B",
"_  c #514D34",
"`  c #5C4E31",
"'  c #4D5238",
"]  c #515036",
"[  c #53523A",
"{  c #5A553A",
"}  c #644D2E",
"|  c #6C552A",
" . c #724F31",
".. c #685535",
"X. c #735633",
"o. c #775C36",
"O. c #4D6C20",
"+. c #776232",
"@. c #255D41",
"#. c #0E6E41",
"$. c #196642",
"%. c #057640",
"&. c #097341",
"*. c #037C44",
"=. c #197747",
"-. c #226042",
";. c #4B4843",
":. c #514C44",
">. c #524D48",
",. c #545547",
"<. c #55514C",
"1. c #59554E",
"2. c #4B4E51",
"3. c #4E5255",
"4. c #595653",
"5. c #5E5A55",
"6. c #6F5A41",
"7. c #615C57",
"8. c #625E59",
"9. c #65615C",
"0. c #69645E",
"q. c #5E676A",
"w. c #666360",
"e. c #6A6661",
"r. c #6E6A65",
"t. c #656968",
"y. c #6F6C69",
"u. c #726E6A",
"i. c #74716D",
"p. c #7A756D",
"a. c #6C6F72",
"s. c #757471",
"d. c #797673",
"f. c #7C7976",
"g. c #73787B",
"h. c #7D7C7A",
"j. c #852B2A",
"k. c #91332A",
"l. c #882F33",
"z. c #893838",
"x. c #913531",
"c. c #B13436",
"v. c #C9363B",
"b. c #8B6C12",
"n. c #8D7912",
"m. c #966D2B",
"M. c #886236",
"N. c #846439",
"B. c #A33F40",
"V. c #837E76",
"C. c #817F7C",
"Z. c #028147",
"A. c #018349",
"S. c #7F837C",
"D. c #97830A",
"F. c #8F8519",
"G. c #A48D07",
"H. c #B19B14",
"J. c #AA9720",
"K. c #D1B415",
"L. c #C79A21",
"P. c #EBC91A",
"I. c #F3CF1C",
"U. c #83817E",
"Y. c #8A857B",
"T. c #8A857D",
"R. c #7D8286",
"E. c #858483",
"W. c #888785",
"Q. c #8B8986",
"!. c #878788",
"~. c #888788",
"^. c #8C8B8B",
"/. c #928E86",
"(. c #918F8C",
"). c #969087",
"_. c #93918E",
"`. c #99948C",
"'. c #9E998F",
"]. c #8E8E91",
"[. c #908F90",
"{. c #8F9092",
"}. c #949393",
"|. c #999794",
" X c #9C9A96",
".X c #969699",
"XX c #97989B",
"oX c #9C9B99",
"OX c #A29D95",
"+X c #A19E9A",
"@X c #A6A097",
"#X c #A5A29D",
"$X c #ACA59B",
"%X c #A9A59C",
"&X c #9C9DA0",
"*X c #A5A3A2",
"=X c #AAA7A1",
"-X c #ADAAA4",
";X c #A6A7A9",
":X c #A7A8A9",
">X c #AEADAB",
",X c #B1ADA6",
"<X c #B1AEA9",
"1X c #B5B2AC",
"2X c #B9B4AB",
"3X c #AFB0B2",
"4X c #B7B5B2",
"5X c #BCB9B3",
"6X c #C2BEB5",
"7X c #C2C1BD",
"8X c #CFCFCD",
/* pixels */
"T.U.W.d.f.U.Q.=X1X|.(.Q.oX_.(. X2X`.^.Q.^.{.}.{.>X#X^.~.Q.^.[.{.*X6X+X^.Q.~.E.}.XX8X6X.X_.Q.}.Q.|.*X",
"T.U.U.C.V.W.h.+X%X!.s.d.^.Q.^.^.1X}.^.h.^.^.^.{.@X_.s.E.Q.E.C.C.*X6X}.Q.W.C.~.Q.W.8X6X}.}.Q.E.Q.Q.oX",
" Xh.h.f.f.U.d.*X-XQ.E.E.Q.Q.(.}.1X_.U.E.!.@.K *.*.H M d.!.h.h.h.}.6X[.U.9 . l.R.E.2X<X~.Q.Q.Q.^.(.+X",
"`.Y.d.f.h.h.E.=X1XE.{.h.E.U.C.{.1XQ.E.U.!.P -.-.*.*.g f h.u.C.E.|.6X(.W.O O c.!.W.,X#X^.}.`.E.}.}.+X",
"/.C.C.f.W.C.f.#X1XQ.Q.E.C.d.E.^.1X_.U.i.l.c.B. .M f - < h.h.E.z.c.B.B.q O x.z.E.E.<X,XW.^.^.Q.).Q.oX",
"Q.f.E.U.C.d.s.|.,XU.E.^.!.U.E.^.<X_.W.C Z ` r e 8 W e q 9 0 0 r l.j.c.v.c.x.E.U.E.,X%XQ.XX`.|.}.^.|.",
"Q.U.Q.Q.E.h.U.*X,X}.].E.E.h.E.oX2X_.d.B A z b H *.G M M 3 e e r w q j.j.c.v.x.^.^.-X1X|.|.OXXX^._.+X",
"V.0.8.7.5.7.7.V. Xe.8.7.5.5.9.p.@XY.W X # D G G K F u g - 0 e l.z.z.l.0.7.c.v.r.y.%X(.0.0.0.7.e.r.T.",
"`.U.U.V.f.f.U.@X@Xr.r.i.s.y.i.h.-XZ k h n h h g l t & @ + p i.h.Q.5XV.f.C.r c.d.d.%X Xf.f.s.u.f.h.).",
"@X).+X+X(.oX_.<X1XU.U.E.Q.W.Z F H K h h P B @     o @ @   + < U._.2XQ._.}.}.w ^.W.,X=XQ.~.~.Q.}.}.oX",
"+X(./.|.].|.}.=X=XW.W.h.f.E.k u u u l S P F.F.U + @ y s d d l h M 5X_.^.E.Q.W.^.E.@X+Xh.^.}.^.[.~.*X",
"+X}.(.E._._.oX<X-XW.E.U.h.Q.y t % % x h h K B E R U R D.G.G.P K c 7XoX^.E.h.E.^.E.#X*XW.[.^.^.[.~.oX",
"OX|._.Q.}.|. X1X,XU.U.E.Q.U.h F x - = < z l z G L L L L O.D.R b G n / / E.E.f.^.^.1X-X[.(.^.[.[.}.-X",
"+X X_.}.}. X.X>X%XU.E.Q.^.h.c Z.K ~ } ..! i b F *.A.*.S j I O.K F F M ..^ E.E.E.^.4X-X^.W.}.}.[.^.oX",
"+X X}.`.%X XoX>X%XQ.^.E.W.Q.V &.J ....} o.3 S K F x g t % = x S h y < ..^ ) Q.~.(.,X-X}.Q.[.E.[.}.*X",
"`.Q.W./.Q.f.T.OX@XT./.Q.Q.U.h.b Z  .o.} o.c A l u t f 3 V t t t t t i { / ) h.U.U.=X XE.C.h.C.E.^.:X",
"V.8.r.e.9.1.0.T.'.r.0.i.e.9.9.s c ] X.! ..- u t t @ . 9 0 1 t g t t 4 [ / ) <.<.4._.Q.0.5.4.8.8.8.Q.",
"_.f.^.E.U.U.E.*X%XE.h.{.].^.{.U X W / / { W % @   ; 6 q O % t t t & N / [ h.[.^.}.=X%X}.}.E.].].|.*X",
"^.f.f.s.f.Q.U.oX-XQ.E.!.^.{.^.U + > 5 / / / + ~ n.b.k.R q 6 ; # # 1 ( ( ^.~.[.^.].=X+X(.!.].!.E.W.}.",
"(.f.h.U.f.E.E.oX-XE.E.}.E.!.{.~ p : . $ $ X ' L.L.k.b.K.b.q Y b.: > +X].^.^.^.]..X,X+X~.h.E.^.[.[.|.",
"_.E.U.E.!.E.Q.1X%XQ.].E.U.E.E.W : T . + p t.g.S.| Y K.P.G.m.j.| ) 5 &X[.E.^.].^.].=X+X^.[.].].[.}.[.",
" XQ.C.U.!.!.^.*XoX^.^.S.}.(.d.s.U T : X :.,.Q 6...| m.J.n.E e [ :.:...X...].!.^.^.-X|.W.}.[.].].}.oX",
"_.^.^.^.^._.^.}._.Q.].E. X].^.(.~ I |  .,.[ N.N.+.X.} 9 Q , > Q ` ....+.N.M.}..X^.+XoX].].^.]..XoX+X",
"_.(.^.^.Q.E.U.|.OX(.].^.}.Q.E._.%X} ! 5 , ) 8 , ( Q 7 7 7 , : _ ' 5 2.{ ,......X].*X,X*X[..X*X&XoX3X",
"r.1.:.:.( ( :.d./.:.( 0 ;.( ( <. X/ U ; ;.@.* V C D.P.K.I X.X.{ <.4.3.5.1.[ 5.4.5.'.(.8.7.8.w.5.w._.",
"/.T.U.f.U.U.f./. XQ.C.C.Y.R.Q.Q.`.^.~ ,.q.2 Z -.S E I.P.n.8 M.M.X...,.,.Q.Q.E.W.E.%X_.h.}.^.}.^.^.=X",
"+XW.W.^.E.W.Q.#XoX_.}.^.Q.].^.^.`._.].g.@.n D A.x s K.I.H.n.b.X.M.M.N.,.}.}.^.^.^.@X(.}.}.].].].}.&X",
"W.Q.Q._.Q.E.^.*X#X^.W.^.W.U.Q. X%X XR.@.b &.A.K g y H.P.H.K.R i s N W ) :.[.[.^._.oX^.}.].;X].].}.4X",
"}.^.W.E.^.].}.>X*X^.W.W.W.W.u.[.,XR.t.c K A.A.F t t E K.n.R - t t t 3 3.].^.~.E.W.+X(.^.^.XX&X&X^.;X",
"^.^.^.^.}.oX}.1X%XQ.E.^.}.W.h.(.g.g.W.H K *.*.g t & a U d % t u l t - {.3.^.~.E.Q.#X.X].]..X].E.E.oX",
"}.(.^.^.].oX}.4X%X(.[.^.XX}.C.g.g.oXv *.*.K x t t & E.v A l u K x t 2 !.^.3.^.E.d.+X}.[.!.].].~.].;X",
"Q.C.E.^.^.}.}.1X*XoX~.E.^.}.[.a.-X|.#.*.*.S g t * 3 Q.Q.Z.x A Z.x t 3 !.E.2.^.W.E.+X(.oX}..X.X]..X;X",
"C.f.f.f.d.h.U.@X@XY.f.U.f.f.t.Q.=X5 S *.*.F u * 3 ).i.i.#.z %.A.x f T.h.C.h.2.u.s.#XT.d.d.d.d.h.f. X",
"i.e.0.0.e.u.0.Q.`.i.9.9.0.4.5.r.8 | ~ &.F t 2 e.).OXi.i.#.&.*.*.h 2 h.r.w.y.r.e.0.`.V.i.u.y.i.r.u.Q.",
"oX}. X(._.^._.oX X_.E.E.;.!.E.V ! X.N._ 5 4 }._.`.@X}. X$.*.D B N / 1XoX&X*X*X*X X=X(. X}.}.oX}.].oX",
"_.].^.E.E.}.{.XX^.h.U.E.h.h.J Z | o.! _ ' ' ^.{.#XOX^.XX/ ~ Q | X.) oX}..XoX+XXXoX>X_.E.^.E.^.E.!.oX",
" XoX}.E.h.Q.]. X^.h.C.C.d.@.*.#.W ` [ _ / ( Q.|.-XOXQ..XW 9 8 X...[ }.XXoX}.*XoXXX5X(.E.Q.h.^.}.[.|.",
"Q.].{.E.h.s.E. X[.E.~.C.h.m S h - W ^ ^ W E.U.^.>X*X^. XH h N ` / ^ oX&X.XXX4XXX}.<X+X}.}.^.].}.Q.}.",
"oXU.C.U.U.U.h.}.[.U.h.E.E.2 & t l * j 2 4 E.f.f.1X%X^.@.*.Z.H M W W &XoX&XoX}.}..X5XoX(..X(.W.}.[.XX",
" X^.}.^.E.].!.E.~.s.s.C.E.k g x S & t 2 ^.W.E.W.-X%X{.$.Z.Z.D & f - XX{..XoX}.}.|.5X+X(.}.^.^.~.~.|.",
" X^.W.^._.[.}.+X(.E.U.(.Q.m G &.S t * 4 ^.W.C.W.=X,X|._.%.*.x l g 2 (.(.].oXXXXX*X5X=XOX}.}.W.^.U.oX",
"f.r.e.0.9.9.0.p.T.5.1.8.7.$.G %.x 1 ;.;.;.( :.;.T./.5.5.v g g K z j u.8.w.w.w.w.r.*XV.4.1.<.1.>.1.V.",
"T.`.^.E.Q.W.W.*X+XQ.`.(.Q.U.S *.g M W.Q.^.|.+XoX%X%X_.^.^.k S K S f +X.XU.~.{..X^.5X+X(.}.~.|.^.].3X",
"_.}.W.W.!.d.U.1X%Xf.h.^.W.V h l f Q.W..X_.|._.Q.-X@XQ.!.].E.&.K G f [.^.~.~.&X].^.>X-X.X}..X&X^.E.;X",
"_.Q.E.W.].U.U.1X+Xh.E.h.U.m S l j }.U.h.^.(.~.!.1X=XE.!.h.C.$.K K g M E.].].{.&X&X<X;X~..X^.~.}..XoX",
"Q.U.h.^. X|.W.=X$XQ.W.W.H *.*.G j oX_.h.(.}.~..X4X-X^.E.C.~.E.D K x t 1 2 .X.X]..X5X-X.X.X~.].~.].XX",
"|.~.s.d. XoXE.*X%XE.Q.D b F K F j }.!.]..XoX^.E.5X#X!.!.~.^.$.K %.A t u t f !.!.[.5X;X.X&X]..X~.].;X",
" XE.h.h.W.E.C.,X-X~.=.z b G G k <X|.E.(.].}.}.^.5XoXh.E.E.~.G G b t & t t t y ].].5X:X.X&X.X.X.X!.&X",
" Xh.E.^.(.^..X<X$X}.^.V c c k +X,X|.[.(.^.oXoX[.4X+X_.E.f.E.h.V W.-X|.M f y 1 .X.X4X>X;X].^.&XXXXX;X",
"Y.8.p.p.d.h.Q.oX=XU.i.V.C.C.Y.f.OXQ.U.C.T.C.W.W.+XOXV.p.u.u.i.i.Q.<XQ.E.h.U.f.h.E.-X XE.E.f.E.U.E.+X"
};
