/* XPM */
static char *result[] = {
/* columns rows colors chars-per-pixel */
"50 50 230 2 ",
"   c #0C0B09",
".  c #04190B",
"X  c #161808",
"o  c #1D1716",
"O  c #2F1717",
"+  c #03210F",
"@  c #19240A",
"#  c #072B12",
"$  c #182113",
"%  c #043D1A",
"&  c #083818",
"*  c #143B1C",
"=  c #1B381C",
"-  c #252C09",
";  c #312D1E",
":  c #2F3212",
">  c #26361A",
",  c #163E24",
"<  c #1B3D24",
"1  c #2B2D21",
"2  c #332F21",
"3  c #342B2A",
"4  c #3A2E2B",
"5  c #243B27",
"6  c #3E312D",
"7  c #373929",
"8  c #3E3330",
"9  c #373D33",
"0  c #5A2C1B",
"q  c #493715",
"w  c #41322E",
"e  c #473B29",
"r  c #56302A",
"t  c #433633",
"y  c #483733",
"u  c #463935",
"i  c #493A36",
"p  c #463D3A",
"a  c #4D3D39",
"s  c #523B37",
"d  c #573836",
"f  c #513F3B",
"g  c #742627",
"h  c #6A352B",
"j  c #6B3A37",
"k  c #793937",
"l  c #01441B",
"z  c #0A421E",
"x  c #02491E",
"c  c #134118",
"v  c #2F4D14",
"b  c #284819",
"n  c #354718",
"m  c #084724",
"M  c #034C22",
"N  c #174626",
"B  c #035225",
"V  c #045429",
"C  c #095329",
"Z  c #035B2C",
"A  c #095B31",
"S  c #1A5030",
"D  c #175834",
"F  c #264229",
"G  c #394627",
"H  c #2D5628",
"J  c #2A4835",
"K  c #3B4436",
"L  c #374839",
"P  c #28583A",
"I  c #37563A",
"U  c #03612E",
"Y  c #036433",
"T  c #076738",
"R  c #056E3A",
"E  c #0A6C3B",
"W  c #18673A",
"Q  c #04723D",
"!  c #1D7639",
"~  c #3B6324",
"^  c #2B6C35",
"/  c #4A4919",
"(  c #495317",
")  c #604D14",
"_  c #775812",
"`  c #52611D",
"'  c #726E0E",
"]  c #747114",
"[  c #45472C",
"{  c #574529",
"}  c #464533",
"|  c #4A4533",
" . c #454A37",
".. c #4B4A33",
"X. c #42433B",
"o. c #4C423C",
"O. c #4C4A3B",
"+. c #584D34",
"@. c #53423D",
"#. c #59443F",
"$. c #524B3D",
"%. c #4E5331",
"&. c #515135",
"*. c #565538",
"=. c #5A553B",
"-. c #654E2E",
";. c #6C542B",
":. c #674A38",
">. c #7B4D35",
",. c #645436",
"<. c #6C5433",
"1. c #6A5935",
"2. c #765934",
"3. c #4D6C20",
"4. c #776232",
"5. c #2D5B41",
"6. c #3B5342",
"7. c #176841",
"8. c #077541",
"9. c #037C44",
"0. c #286043",
"q. c #4C4544",
"w. c #454A45",
"e. c #4C4C4B",
"r. c #564541",
"t. c #5A4641",
"y. c #534944",
"u. c #5D4944",
"i. c #5A4748",
"p. c #544D4B",
"a. c #5C4D4A",
"s. c #485347",
"d. c #57534A",
"f. c #5B5453",
"g. c #585656",
"h. c #614A44",
"j. c #624F49",
"k. c #67534B",
"l. c #625653",
"z. c #685651",
"x. c #625C57",
"c. c #6C5B55",
"v. c #635D5B",
"b. c #6B5E5A",
"n. c #59645B",
"m. c #64615E",
"M. c #6B635E",
"N. c #74635D",
"B. c #517366",
"V. c #6A6764",
"C. c #7B6C67",
"Z. c #726D6B",
"A. c #74716D",
"S. c #7B736E",
"D. c #687870",
"F. c #757472",
"G. c #797673",
"H. c #7C7976",
"J. c #737D7C",
"K. c #7C7B7A",
"L. c #852B2A",
"P. c #8D352F",
"I. c #853839",
"U. c #B72F34",
"Y. c #A83435",
"T. c #B53536",
"R. c #C8363A",
"E. c #876A13",
"W. c #8E6E11",
"Q. c #8D7912",
"!. c #966D2B",
"~. c #886235",
"^. c #846339",
"/. c #A33F40",
"(. c #866969",
"). c #837473",
"_. c #837D76",
"`. c #827E7C",
"'. c #028147",
"]. c #018349",
"[. c #7F837C",
"{. c #97830A",
"}. c #938517",
"|. c #A6920E",
" X c #B69D14",
".X c #BFA30C",
"XX c #A39326",
"oX c #D2B515",
"OX c #C79A21",
"+X c #EBC91A",
"@X c #F3CF1C",
"#X c #83817E",
"$X c #8B837C",
"%X c #8B867C",
"&X c #858483",
"*X c #888785",
"=X c #8B8986",
"-X c #878788",
";X c #888788",
":X c #8C8B8B",
">X c #928E86",
",X c #918F8C",
"<X c #969087",
"1X c #93918E",
"2X c #99948C",
"3X c #8E8E91",
"4X c #908F90",
"5X c #8F9092",
"6X c #949393",
"7X c #999794",
"8X c #9C9995",
"9X c #969699",
"0X c #97989B",
"qX c #9B9B99",
"wX c #A19C96",
"eX c #A19E9A",
"rX c #A5A19C",
"tX c #AAA49B",
"yX c #AAA69D",
"uX c #9C9DA0",
"iX c #A7A6A5",
"pX c #ABA9A4",
"aX c #A6A7A9",
"sX c #B1ADA7",
"dX c #B6B2AB",
"fX c #AFB0B2",
"gX c #BAB8B3",
"hX c #C4BFB5",
"jX c #C2C1BD",
"kX c #CFCFCD",
/* pixels */
"%X#X*XG.H.#X=XpXdX7X,X=X8X1X,XwXdX<X_.(.N.z.k.a.u.h.h.j.z.V.S.`.uXhXeX:X;X*X-X3XuXkXjX9X,X=X6X:X7XiX",
"%X#X#X#X_.*XK.qXyX;XF.G.:X=X:X_._.N.u.f i t 9 K 9 8 6 8 t u f i.b.$X*X;XZ.v.C.&X;XjXjX9X6X=X&X=X=X8X",
"8X#XK.H.G.#XG.iXpX=X&X#X=X_.N.j.a t 4 w i I 8.9.9.T K o.i t 4 4 8 a i.b.i.O I.(.;XdXsX;X:X=X=X:X,XeX",
"2X_.G.H.K.K.&XpXdX&X4XH.N.u.i 4 4 s t.u.t.0.0.W 9.8.x 5 @.t.u.t.a 8 3 d O O Y.).;XsXtX=X6X2X&X6X6XeX",
">X#X#XH.*X#XG.rXdX=XS.k.a 4 w #.u.@.i d L.T./.k 5 m * > a f d k /.I.I.r O L.k V.`.sXsX>X:X:X=X<X=XqX",
"*XK.#X#X#XG.F.7XpXN.u.w 4 #.u.a t u o.q.P { k h e e j h r y d j I.L.U.R.R.I.p i.b.rXeX;X9X2X8X4X:X7X",
"=X#X%X=X&XK.#XwXC.@.4 i h.s t y @.u.r.G Y V A 8.9.E 5 F 1 d j j g g L.L.U.R.k 3 @.N.eX9X8XwX7X:X,XeX",
"#XM.m.m.f.x.x.c.@.4 s t.u t f t.u.@.[ @ # R R R Q T x M * a j j k k j #.d Y.R.d 3 a l.v.b.V.x.V.V.%X",
"<X#X#X_.H.H.c.f 4 @.u.t i t.i  .w.P N m Z m m B B x l + @ n } u t o.s a a j U.>.f 3 a f.Z.F.Z.K.`.<X",
"tX<XrXwX>XC.#.4 #.@.a y u.u.L T Q R B m ^ ~ # . . . + % + @ > } a #.i t @.#.k f t.f 3 @.v.&X=X6X6XqX",
"eX,X%X8X).u.4 @.r.6 i i u.#.N x M l m T ~ }.] ( @ # c v v b C m K @.i u.t.r.r.y r.t.i 3 t.Z.:X3X-XiX",
"eX6X1X_.k.w y u.t a u.t.#.$.z l & & Z V m 8.H ] ] ( ' {.|.|.~ Q S o.t.t.s @.t.t.r.r.u.t t i.G.3X;XqX",
"wX7X1XN.i w u.r.t @.i u a o.m T V & > = C C B R ! ! ! ! 3.{.' A R A  .O.a i i u t r.t.t.4 a f.;X6XpX",
"rX8X$Xa.2 @.@.w i u.#.@.u.a D ].Q %.-.<.{ < Z R 9.].9.Y N / 3.Q Y Y G =.} r.u.r.r.r.a u.f 3 t.A.:XqX",
"eX2XN.i w u.a @.t.@.#.i u.t.L Q W <.<.-.2.N Y Q R Z M l & * Z U m % > 1.} O.t.i @.t.#.s u.8 a f.:XiX",
"2X#Xj.6 #.s t i u a @.i s u t D ^ -.2.-.2.S U M x x l , K l l l x l c =...O.t.i f i i i t.@.4 r.Z.aX",
"#Xk.a w u.t r.u.f u.@.s :.#.$.H S +.<.{ 1.N l x % # X r X.m l l l l F &...#.u.i #.u.@.t.u.t.4 a y.;X",
"=Xz.6 s u.s i u.i t.r.@.o.@.@.( X } ....=.[ & + . - 0 g O # % x l l G ..$.O.@.@.s u.i @.r.t.i t i.,X",
"_.j.4 t.i t a t.u @.i i @.f O.( @ : 7 ....| - n Q.W.P._ 0 0 - # # = | O.o.o.s i i #.y @.a r.r.3 r.V.",
"S.@.6 t.a a t.t.@.t.u.f u.@.#.%.v -   $ @ o &.OXOXP.W.oXW.g _ W.: 2 r.a.a #.h.@.t.t.@.t.u.s t.4 f x.",
"N.i y t.u i @.@.a a t.u @.f a ..n ` X X n M.J.&X:._ oX+X|.!.L.4.O.7 O.@.@.i #.a @.@.@.y #.y u.t i y.",
"c.y a @.i u @.f a @.s u @.s f t.( ` : X s.d.{ 1.,.;.Q.XXQ.] h +.e.@.:.:.+.$.#.t o.@.a @.#.i u.a y r.",
"k.w @.u.u.r.u.u.a u.t.r.t.t.a h.{ / ;.<.d.*.~.^.2.2.+.r { ; ; e +.,.2.4.~.~.k.@.#.u.#.j.u.#.u.s 6 r.",
"j.4 @.u.u.@.@.t.i @.a i a r.i f o.-.-.2 > O.e ;  .{ / q q 2 : ..O.9 w.$.=.1.#.a y t.u.@.a u.u.@.4 r.",
"h.4 r.u.i   o t.f @.f f t.a a #.a +.[ @ L e.& J 6.}.+XoX) 2.;.=.d.g.q.i.o.$.o.s f h.r.o   i u.@.4 r.",
"u.6 t.h.u   O u.@.f t.i h.r.t.t.@.@.*.e.V.N D 0.C ] @X+XE./ ~.^.<.k.*.=.u.y.a.a #.h.r.o   a u.r.4 r.",
"j.4 r.j.a.f r.r.u u r.y f i u f s a e.J.S T T '.Z v oX@X XQ.] >.~.!.4.=.o.t u.} f s u.r.f h.h.@.w r.",
"k.8 f u.f f a t i t.s i r.#.f r.i y.J.6.T 9.'.9.M z XX@X XoX' c F G ..w.q.#.t.t @.t.f f f r.u.a t f ",
"c.t a t.a a u r.i u.u.r.r.@.f i.u.F.V.S Q 9.].Y l l ] .X{.' * l l l F p.q.s u.t.r.t.i s a s t.i u f ",
"b.u u u.u u i t.i f i u s r.i f V.g.9 T Q 9.9.B l l G ( v & l x M l < y.e.q.a u y r.i @.i s u.t a f ",
"S.f 4 t.f @.r.f i u.t.s u.a f v.m.r.L 9.9.9.V l l & o.J U V x Q Y l < u.q.p.u.@.t.r.u t.#.#.u.6 f p.",
").a.4 t.u.i #.h.u.f t.i t.r.f.m.@.q.7.9.9.Y M x l 9 @.s.9.Z U ].Z l 7 a.i.e.r.a @.t.t.f h.i.r.4 r.m.",
"K.l.6 a u.i @.u u a r.u s q.f.r.f 8 U 9.9.Y x % 5 u i q.7.V 8.].Z z 9 a i p e.p @.i i i t.u.i y @.F.",
"A.l.a 4 u.u t.u.f u.@.a a.p.y.u.e ;.%.9.Y x , } u.f t.@.7.Q 9.9.B < @.u.@.r.y.a t.u.@.t.h.t.4 s p &X",
"qX&Xa.4 @.t.f u.i t.r.@.q.r.a L -.;.^.&.G F O.a t.i #.t.5.9.T H G ..r.@.a s #.t.f t.u t.h.@.w @.g.qX",
"6X:XV.i 8 i.a r.u @.i a @.o.5.D -.2.+.&.&.O.a i r.u @.f [ %.{ <.2...a t.a a i i i t.u u.u.8 s o.F.qX",
"7X8XK.a.3 f t.a s h.u.f u.L 9.E [ +.*.&...y.f u.r.s u.u.| e e 2.,.*.o.u.@.@.u.@.t.t.s h.f 4 @.f.:X7X",
"=X4X3Xb.a 4 u.i.@.a r.i t.P Y m * } | [ } t.u @.@.@.i y.W N G &...} a t.@.a #.a f @.h.t.4 @.q.K.:X6X",
"eX`.`.G.a.8 t t.i f f i r.< l x B & N * 9 r.t f s a s 6.9.9.U 7 ..} o.@.o.a t.y s #.t.t w q.f.6X4X0X",
"7X:X6X:XZ.t.3 a t.r.r.r.h.F m Z Y & l % K u.@.t.u.a u.5.'.].R % z 5 @.h.@.@.t.@.h.h.a w #.q.&X-X;X7X",
"8X:X*X:X,XV.@.3 r.u.r.a a P R R Y % * 9 @.a a u t.u #.L Q 9.V V M < i @.a s f t.h.@.4 #.a J.;X=X&XqX",
"K.V.V.M.M.g.a.a 3 a t.i r.6.R 9.Z , 9 a t.@.s r.@.t t.f J B M Q V F @.t.u s #.u.a 4 f t p p.d.p.d._.",
"%X2X:X&X=X&XK.b.@.3 i i.r.6.Y 8.x K a u s u a @.#.s #.@.i F Y Q Y N u.t.#.h.h.a 4 @.o.V.6X;XqX:X3XfX",
"<X6X*X*X=XG.K.rXb.r.3 t t.w.m B N q.a u a t f @.a u u | t X.E R R N u.h.h.t.u 4 #.a A.6X6X9XuX:X&XaX",
"1X=X&X-X3X#X#XdX2Xf.y.6 9 D Y B F r.i i i a @.t.t a t s u i P Q R m L O.a 4 i r.o.`.aX;X9X:X;X6X9XqX",
"=X#XK.:XqX8X*XpXtX#XV.s.W 9.9.R N y.u.u.@.a @.t.u @.i t.a s s.T Q Z l z < a @.q.K.gXpX9X9X;X3X;X3X0X",
"7X*XF.G.8X8X&XiXtX*X[.R Z T Q Y , i @.a.h.u.t.u.t.u.u.h.u.a.0.E Q Z l l l < w.J.3XgXaX9XuX5X9X-X3XaX",
"8X*XK.K.;X&XK.pXpX-XB.V A R R S p t 4 4 t i @.@.@.y.s @.a p 7.Q U m l l l l m D.5XgXaX9XuX9X9X9X-XuX",
"8XK.#X,X1X:X9XsXyX6XD.n.P P 6.n.M.d.t.@.i t 6 6 4 6 6 t u a L L  .w.e.s.J m S J.6XgXsXaX5X:XuX0X0XaX",
"$Xm.S.A.G.[.*XqXyX#XA.#XH.K.%XH.7XH.v.p.y.a @.r.t.t.r.@.a i p q.V.rX;X*XD.Z.Z.H.*XpX6X*X*XH.&X#X*XqX"
};
