/* XPM */
static char *_a12b1e30b4540769dce5dbf9c8bbe9ckqQcXTUeQTzFD846[] = {
/* columns rows colors chars-per-pixel */
"50 50 140 2 ",
"   c #433E37",
".  c #46413B",
"X  c #49443D",
"o  c #4C4740",
"O  c #4E4942",
"+  c #524D45",
"@  c #524D48",
"#  c #55514C",
"$  c #59554E",
"%  c #5B5651",
"&  c #5E5A55",
"*  c #615C57",
"=  c #625E59",
"-  c #65615C",
";  c #69645E",
":  c #666360",
">  c #6A6661",
",  c #6E6A65",
"<  c #6F6C69",
"1  c #726D66",
"2  c #726E6A",
"3  c #767067",
"4  c #74716D",
"5  c #7A756D",
"6  c #757471",
"7  c #797673",
"8  c #7C7976",
"9  c #7D7C7A",
"0  c #837E76",
"q  c #817F7C",
"w  c #878177",
"e  c #83817E",
"r  c #8A857D",
"t  c #8D887E",
"y  c #858483",
"u  c #888785",
"i  c #8B8986",
"p  c #878788",
"a  c #888788",
"s  c #8C8B8B",
"d  c #928E86",
"f  c #918F8C",
"g  c #969087",
"h  c #93918E",
"j  c #99948C",
"k  c #9E998F",
"l  c #8E8E91",
"z  c #908F90",
"x  c #8F9092",
"c  c #949393",
"v  c #999794",
"b  c #9A9896",
"n  c #9D9A94",
"m  c #9D9B97",
"M  c #9C9995",
"N  c #969699",
"B  c #97989B",
"V  c #9A9998",
"C  c #9A9A98",
"Z  c #9D9C99",
"A  c #9E9C99",
"S  c #9F9E9C",
"D  c #9C9B9B",
"F  c #A29D95",
"G  c #A19E99",
"H  c #A19F9B",
"J  c #A19F9C",
"K  c #A19E9A",
"L  c #A6A097",
"P  c #A8A195",
"I  c #A2A09B",
"U  c #A6A29B",
"Y  c #A2A09C",
"T  c #A4A19D",
"R  c #A6A39C",
"E  c #A4A29E",
"W  c #A5A39F",
"Q  c #A6A39E",
"!  c #A5A29C",
"~  c #A9A59C",
"^  c #AAA69E",
"/  c #AAA59D",
"(  c #AEA89F",
")  c #9C9DA0",
"_  c #A2A1A0",
"`  c #A3A2A0",
"'  c #A6A4A1",
"]  c #A5A4A2",
"[  c #A7A5A2",
"{  c #A4A3A3",
"}  c #AAA7A1",
"|  c #AAA8A3",
" . c #ACA8A0",
".. c #ADA9A1",
"X. c #AEAAA3",
"o. c #AAA8A4",
"O. c #AEABA5",
"+. c #AFACA5",
"@. c #ADAAA4",
"#. c #A6A7A9",
"$. c #A7A8A9",
"%. c #AEADAB",
"&. c #B0ACA5",
"*. c #B0ADA6",
"=. c #B1ADA7",
"-. c #B1AEA7",
";. c #B3AFA7",
":. c #B4AFA7",
">. c #B1ADA6",
",. c #B2AFA9",
"<. c #B1AEA9",
"1. c #B6B1A7",
"2. c #B3B0AB",
"3. c #B5B1A9",
"4. c #B6B2AA",
"5. c #B6B3AD",
"6. c #B4B1AC",
"7. c #B9B4AB",
"8. c #B9B5AD",
"9. c #BAB6AE",
"0. c #BAB5AE",
"q. c #BDB8AF",
"w. c #AFB0B2",
"e. c #B6B4B0",
"r. c #B5B4B2",
"t. c #B9B6B2",
"y. c #BFBBB3",
"u. c #BCB9B3",
"i. c #C0BCB3",
"p. c #C0BCB4",
"a. c #C2BEB6",
"s. c #C4BFB5",
"d. c #C1BDB5",
"f. c #C4C0B8",
"g. c #C5C1B9",
"h. c #C2C0BD",
"j. c #C2C1BD",
"k. c #C3C0B8",
"l. c #C9C9C8",
"z. c #D5D4D2",
/* pixels */
"t e u 7 8 e i o.3.v f i C h f n 8.j s u s x c x +.R i i i s x x ' s.R s i u y c V z.j.c h i c i v ] ",
"r e e q 0 u 9 K ^ p 6 7 s i s s 5.c s 9 s s s x R h 6 y i y q q { i.c a y q a s u l.j.c c i y i i C ",
"n q 9 8 8 q 7 ' @.i y y i i f c 4.h e y p s 9 s R h < 7 p 9 8 9 c u.h y y < 7 y y 8.>.u i i i s f H ",
"j 0 7 8 9 9 y o.3.y l 9 y e q x 5.i y e y p 9 y H n e q 9 < e y v a.h i q 9 y s u &.W i c j y c c H ",
"d q q 8 u q 8 T 1.i p y q 7 u s 4.f q 6 7 8 9 e v h y 9 9 q y s N a.i 9 y s y y y <.X.i s s i g i C ",
"i 8 y e q 7 6 v -.e p s p e y i 4.h y y y 9 y e v c p e e y 9 p v p.u y s 9 y e y >.~ i N j M c s v ",
"i e i i y 9 e ] -.c x y y 9 y C 5.h 7 u s s x s R v e s e 9 p s R g.i 9 y p 9 p s +.6.b C A b s h S ",
"0 ; = * & * * 0 n > = * & & - 5 P r 3 , ; , , , g d = = % % = : 8 7.7 - * < 2 , < ~ d ; ; ; * > , r ",
"j e e 0 8 8 e I L , , 4 6 < 2 9 +.i 0 6 < 2 7 4 F k 8 4 7 2 2 9 i q.0 8 q q 9 7 7 ~ n 8 8 6 2 8 9 g ",
"L g G K f C h 1.1.e e y i u i C s.C e e 7 q f C t.k e p e e e e h q.i h c c s s a O.} i a a i c c Z ",
"G f d v z v h } | u u 9 8 y u h k.F h u e i u C ,.F 7 y 6 9 p y N u.h s y i a s y R K 9 s c s z p ] ",
"G c f y h h D 2.+.u y e 9 u s c i.R | C C f e s -.L y s p s s e c a.Z s y 9 y s y R ' u z s s z a D ",
"F v h i c b b 6.+.e e u u e y s t.v C i s i f h t.R e p y p p 9 f t.h u y y 8 s s 6.X.z f s z z c o.",
"G m h c c Z N %.~ e y u s 9 e u t.Z f y u s c f 5.R q 9 y y p 6 c 6.v y p y y y s r.O.s u c c z s S ",
"K n c j W b Z %.~ u s u u i 9 y *.H i s v 7 s c t.R q p s u p p Z 7.N y y p i a f O.O.c i z y z c ] ",
"j i u d i 8 r F L r d i i e 8 8 L i 7 0 0 > 0 r 4.k 2 2 7 9 9 q g :.u 9 7 7 9 e e } n y q 9 q y i $.",
"0 * , > - $ ; r k , ; 4 > - - > j 2 $ % * % * ; k h * # * * # % 2 ( ; $ @ @ # # % h i ; & % = = = i ",
"f 8 s p q q y W ^ y 9 x l s x c *.L c v D c x h t.3.h u s 8 7 9 f ,.g c a 9 z s c o.~ c c y l l v ' ",
"s 8 8 6 8 i q S @.i y p s x s c ~ H q y c c y x 5.F y y i 6 6 q i 8.) c s a z s l o.K f p l p y u c ",
"f 8 9 e 8 y y S @.y y c y p l x W s i s p y y f 6.k u q y q 8 y c t.S l l a s l N =.G a 9 y s z z v ",
"h y e y p y i 6.R i l y e y y y H q 6 p s c x x -.j e e i y q q i ,._ l y s l s l o.K s l l l z c z ",
"m i q e p p s ] m s s q c f 7 6 v h h h C s s p -.j e s l y q y V &.V s y l p s s o.v i c z l l c D ",
"h s s s s f s c h i l y C z s z n n H s x x i i -.j e u p y y 8 f R 7 9 D ) c N s J m l l s l B C S ",
"h f s s i u e v F f x s z i u g R i i c h C v D u.F f e y i p q f <.D V s N V N z ' &._ z N _ ) S w.",
", $ + + X X + 5 g + . . X X . $ k 8 & - & = = - F j * $ $ # % % 1 F 1 & $ % * % & k d = * * : & : g ",
"d r e 8 e e 8 d M i e 9 w e i i j f i 8 7 9 s x +.L u s i i f h h } r q i u y u y ~ h 9 c s c s s o.",
"H u u s y p i W A h c s s l s s j h l p u y p c @.F l x y 9 c f c V c z c c s s s R f c c x l l c ) ",
"u i i f i y s W R s u s u e i C ~ M s x p y y x F n p z l p f ) { c s a s z l s f m s c l #.l l c w.",
"c s i y s x c %.W s u u u u 4 z >.M z s x p q e @.~ x y i x B ) %.[ c N l s a y a K f s s B ) ) s #.",
"i f s s c C c 5.~ i y s c u 9 h 1.h u y x s x s -.R l y p c x s J <.v z s s a y i R N l l N l y y S ",
"c f s s l C x r.~ z l s B c e s | C y y y q x s R ~ y p y q y x D O.s p s p s y 7 K c z p l l p x #.",
"i q y s s c c 5.W C u y s c z D >.b u u u 9 z D +.I p s x i q x #.,.y p y e s a y K f V c N N l N #.",
"q 8 8 8 7 9 e L P w 8 e 8 8 7 i ( r 7 e 7 7 5 8 ~ g 4 4 2 4 < < i ( r 9 q 9 e 2 6 U r 7 7 7 7 9 8 M ",
"4 > ; ; > < ; i j 4 - - ; - & , F 3 - ; > , < > g F 4 4 2 7 6 4 e P q , : < , > ; j 0 4 2 < 4 , 2 i ",
"Z c C f f f h C C h y y z i y h 4.c g N s h c h j U c Z m %.) N K 9.<.S ) { { { b } f v c c C c z D ",
"h l s y y c x D f 9 e y e 9 9 i >.N s a y y s z I F s N N N N l S <.C c c S J D C <.h u a y f y a V ",
"v C z y 9 i l m s 9 q q 7 6 9 y +.i a N 9 y i C +.F i N N z l p T t.c N D c { C ) t.f y i 9 s c z v ",
"i x x p 9 6 y C x y p q q q q p <.r y c a y e s %.W s C c i c ) ] q.S ) N N w.D c =.G c c l l c i c ",
"H q q e e q q z z e 9 y y y 7 p 4.s y s a y 8 8 4.~ s a s y s B ] y.) D ) D c c N u.m z N f u c z B ",
"v s c s u l p y u 6 6 q y q 2 q >.s y p s u y u O.W z l N N l q D y.C z N S c z v u.G f c s s a a v ",
"M s u s h z c H h e e f i e e j ( j h i s u q u ( >.v h c s x s J q.f f z V B B { t.} G c c i i e D ",
"8 , > ; - - ; 5 t & % * & & - > F , O o O X O O r d & & $ # # @ , ( 2 = : : : : , Q 0 % $ # $ @ $ 0 ",
"t j s y i u u E I i j f i e g Z >.g u i i v K V ~ ~ h s s s q p z 7.J N e a x N s t.J f c a V s l w.",
"g c u u p 7 q 5.~ 8 9 s u i 9 i U i u N h b h i o.U i a x y 9 p f ( z s a a ) l s %.@.N c N ) s y #.",
"z i y a z e e 5.L 9 y 9 e s i f >.c e 9 s f a a 6.} y a 9 q y y f ^ u y x l x ) ) <.#.a N s a c N V ",
"i e 9 s C v u o.~ i u u i i c Z X.m h 9 f c a N r.+.s y q p y p s Q l l N N N l N u.o.N N a l a z B ",
"v p 6 7 n C y ] ~ y i z c c Z W O.c a l N C s p t.R a p p s p y e Q z c l ) p p z u.#.N ) x N p l #.",
"b y 9 9 p y q O.@.p z z a j c Z <.v y f l c c s t.m 9 y y a y 4 4 &.D B p l ) l l u.$.N ) N N N a ) ",
"M 9 y s h s N 2.~ c s s u g b E +.v h s s C D c e.W h y 8 y 9 y u &.v D ) { l N N r.%.#.z s ) B B #.",
"w - 5 5 7 9 u Z ( e 4 0 9 e r 8 n i e e r e u y U k 8 5 2 4 4 4 i :.i y 9 e 8 9 u o.v y y 8 y e y J "
};
