/* XPM */
static char *result[] = {
/* columns rows colors chars-per-pixel */
"50 50 185 2 ",
"   c #5D7F38",
".  c #524D48",
"X  c #525847",
"o  c #55534D",
"O  c #59554E",
"+  c #5B5956",
"@  c #5C5A57",
"#  c #625D58",
"$  c #5E674A",
"%  c #657D48",
"&  c #65635A",
"*  c #69645E",
"=  c #697858",
"-  c #717D5E",
";  c #656564",
":  c #6A6662",
">  c #6D6A65",
",  c #6D6D6B",
"<  c #716E6A",
"1  c #6D7662",
"2  c #717E63",
"3  c #72726E",
"4  c #78796D",
"5  c #747574",
"6  c #797673",
"7  c #777975",
"8  c #7B7976",
"9  c #777779",
"0  c #7C7C7C",
"q  c #837E76",
"w  c #817F7C",
"e  c #579C14",
"r  c #5C9D1C",
"t  c #55A30B",
"y  c #5CAE0D",
"u  c #5EB20D",
"i  c #5BA613",
"p  c #5CA318",
"a  c #61B70E",
"s  c #63BB0F",
"d  c #63AC1D",
"f  c #63B315",
"g  c #66BD11",
"h  c #69BF15",
"j  c #66B31B",
"k  c #6ABA1D",
"l  c #5E9B23",
"z  c #5F952B",
"x  c #648F38",
"c  c #649634",
"v  c #699D36",
"b  c #6A983C",
"n  c #64A426",
"m  c #66AD22",
"M  c #67A52C",
"N  c #6BAC2B",
"B  c #69B124",
"V  c #6DB824",
"C  c #6FB729",
"Z  c #72BD29",
"A  c #6BA334",
"S  c #6EA736",
"D  c #73AB3A",
"F  c #74B434",
"G  c #77B43A",
"H  c #67C011",
"J  c #6AC413",
"K  c #6ECA14",
"L  c #6EC51A",
"P  c #6FC918",
"I  c #70CD16",
"U  c #71C61D",
"Y  c #72CC1B",
"T  c #73D116",
"R  c #76D21B",
"E  c #79D61E",
"W  c #7BD81F",
"Q  c #74C524",
"!  c #76CD22",
"~  c #78CF23",
"^  c #76C529",
"/  c #7CCA2E",
"(  c #77D020",
")  c #7AD423",
"_  c #7DD924",
"`  c #7ED52A",
"'  c #7AC232",
"]  c #7DC932",
"[  c #67864A",
"{  c #698A4A",
"}  c #6A9443",
"|  c #6E9449",
" . c #73984A",
".. c #6D8758",
"X. c #718B56",
"o. c #748B5C",
"O. c #739255",
"+. c #789957",
"@. c #7AA84A",
"#. c #7DB246",
"$. c #778767",
"%. c #7C886A",
"&. c #7B9461",
"*. c #7A8273",
"=. c #7C8675",
"-. c #80DB27",
";. c #81D72C",
":. c #83DC2C",
">. c #82CB3A",
",. c #82D333",
"<. c #86DD31",
"1. c #89DE34",
"2. c #85D238",
"3. c #88D33D",
"4. c #8CDF39",
"5. c #86E02F",
"6. c #87E030",
"7. c #8AE234",
"8. c #8EE33B",
"9. c #90E33E",
"0. c #80AE4E",
"q. c #82AC54",
"w. c #808E6D",
"e. c #839C63",
"r. c #839B6B",
"t. c #83817E",
"y. c #8A857D",
"u. c #838878",
"i. c #8C897E",
"p. c #889475",
"a. c #8DA471",
"s. c #86CD40",
"d. c #91DE44",
"f. c #95DD4B",
"g. c #93E444",
"h. c #97E449",
"j. c #99E54D",
"k. c #9DE553",
"l. c #9FE658",
"z. c #A2E65B",
"x. c #A6E763",
"c. c #A8E766",
"v. c #7D7D80",
"b. c #807F81",
"n. c #858484",
"m. c #8B8986",
"M. c #878788",
"N. c #888788",
"B. c #8C8B8B",
"V. c #928D85",
"C. c #918F8C",
"Z. c #8F958E",
"A. c #969087",
"S. c #93938C",
"D. c #99948C",
"F. c #8E8E91",
"G. c #908F90",
"H. c #8F9092",
"J. c #949393",
"K. c #999794",
"L. c #9B9A95",
"P. c #969699",
"I. c #97989B",
"U. c #9B9B9A",
"Y. c #A29D95",
"T. c #A19F9A",
"R. c #94A181",
"E. c #A6A596",
"W. c #A5A49C",
"Q. c #A9A59D",
"!. c #ADAA9F",
"~. c #9C9DA0",
"^. c #A5A4A2",
"/. c #ACAAA3",
"(. c #AAA9A7",
"). c #A6A7A9",
"_. c #B2ADA6",
"`. c #B1AEA9",
"'. c #B6B2AB",
"]. c #AFB0B2",
"[. c #B5B4B2",
"{. c #BCB9B3",
"}. c #C0BEAF",
"|. c #C2C1BD",
" X c #CFCFCD",
/* pixels */
"i.t.m.6 8 w m./._.K.C.m.L.C.u.e.0.N n r e t t t t t t e p l c O.R.}.W.B.N.m.n.J.L. X|.J.C.m.J.m.K.^.",
"y.t.t.w q m.0 T.Q.M.6 - | z p g P K g J ` <.<.` ` T K H y s h g p D &.u.M.w N.N.m. X|.J.J.m.M.m.m.L.",
"L.w 0 8 8 q 6 ^.!.&.A i u J L g a a ! g.z.z.z.8.5.E K s ~ g.l.h.) u y l X.> 6 M.M.'._.M.m.m.m.B.C.T.",
"D.q 6 8 0 0 n.W.q.g s U <.7.:.T g ( j.x.x.x.g.6.E J H <.l.c.c.c.9.U H K y z %.B.m._.W.m.J.D.n.P.J.T.",
"V.w w 8 m.w 8 q.P H Y 9.j.7.W H Y h.z.x.x.k.7._ P h 1.z.c.c.c.l.8._ J J H u e X.t.`./.m.B.B.m.V.m.U.",
"m.q n.w w 2 x j J U g.k.h.<.I J 1.l.z.z.z.g.:.T s ;.z.c.c.c.x.8.:.T s g ! ! U k | !.Q.B.L.D.L.J.B.K.",
"m.w m.m.o.C ` h h 8.k.k.9.-.J ~ j.z.z.z.k.7.E J R k.c.c.c.c.j.6.E J L 8.l.z.z.h.! @._.L.L.U.L.B.C.T.",
"q : # $ j -.E h :.j.j.j.7.T J 1.l.z.z.z.g.:.K J 8.x.x.c.c.z.8.-.P J 8.x.c.c.x.k.:.g S & * * # : > y.",
"D.w b.b s J H Y g.j.j.9.:.K Y h.l.z.z.z.7.) h _ l.x.x.x.c.h.:.T g ;.z.c.c.c.z.8.:.J J b 8 3 3 8 0 A.",
"Y.A.a.^ ` L g 1.h.h.9.7._ H -.j.k.k.l.h.7.I J 9.z.x.x.x.z.8.-.J Y j.c.c.c.c.h.6.E g J g | M.m.Z.J.U.",
"Y.V.D 1.1.J E 9.h.9.7.:.T L 5.h.k.l.k.9.-.J ( j.z.z.x.x.k.:.T J 7.x.c.c.c.k.7._ K g P J y &.F.F.N.^.",
"Y.r.;.7._ J :.g.9.7.:.E J I 5.g.h.9.7.7.E J :.l.z.x.x.z.8.-.J Y j.c.c.c.x.g.:.T h _ j.k.,.B %.F.N.U.",
"Y.@.-.-.Y Y 9.9.7.:.R J s J -.7.7.7.7.:.Y P 8.z.z.z.z.g.7.T J <.z.c.c.c.l.7.E H ! l.c.c.k._ M Z.J./.",
"L.F I J s ) 9.7.5.R J J _ H R 5.7.-.E R J R 8.k.z.z.g.7.:.K U j.c.c.c.x.9.-.P J g.c.c.l.8.7.P +.B.T.",
"L.N U U g :.7.5.R J J 1.9.Y K -.W R K H s T 7.h.k.g.7.5.R H :.z.c.x.c.j.7.E J ` z.c.z.8.6._ R m p.^.",
"p.^ 1.-.J 5.7.W K H :.h.g.) J R I H s Y J K :.8.8.7.5.R K J 7.z.x.x.z.8.-.K J g.c.c.h.7._ T K s c ).",
" .` 7._ P 5.-.I H :.g.h.9.:.J J s E 4.h.:.h E 7.7.:.R K s J :.h.x.z.g.5.W H ` z.c.l.7._ I H L ) Q w.",
"D 6.7.( P 5.R H ) 9.g.g.8.-.s g :.h.j.j.g.J I :.-.T H h I J -.g.z.h.7._ K J 8.c.c.h.5.T H ( 7.g.3.a.",
"Z 6.7.) I W J U 8.g.g.g.7.R H :.h.j.j.j.h._ J W T H J 1.1.J E 7.h.7.:.T s R g.c.z.8._ H ) 7.g.l.s.r.",
"Q 7.7.( K K J :.8.g.9.8.:.K Y 9.h.j.j.j.h.<.J I J U 9.l.g.Y I 5.7.:.T g s T g.x.k.5.I L 6.g.l.3.S S.",
"U 6.5.R K J ( 8.g.g.9.7._ H -.h.h.h.h.h.j.7.J s U 4.k.z.j.( L -.6.E H P P K 8.z.h._ J _ 8.l.' } =.N.",
"P W K H g J 7.8.8.9.8.6.Y J 7.h.h.h.h.h.h.7.I h 1.j.k.k.k.:.J E _ K J 6.( K 6.l.8.E L 6.h.>.{ v.v.B.",
"g g L L u ) 8.8.8.9.8.:.J R 8.g.h.h.h.h.h.:.J R g.j.k.l.l.9.J I T H <.j._ J 5.h.8.K ! 8.d.b 0 b.M.N.",
"f ` 7.:.J :.8.8.8.8.7.E H :.g.g.g.g.h.h.9.-.J -.h.k.j.k.k.h.R J H ( k.l._ J _ g.<.K ) 8.>.$.B.M.M.I.",
"k 1.7.:.J :.7.8.8.8.5.I P 7.g.g.g.g.g.h.9.) J <.h.j.k.k.k.g.-.s J 8.l.l.4.J _ 7._ L ` 8.S X @ o + V.",
"C :.7.1.J _ 7.7.8.7.:.J ( 8.g.g.g.g.g.h.7.T J 7.j.j.j.k.j.9._ s _ j.l.l.8.J R 7._ K ` d. .9 v.v.m./.",
"@._ 7.7.U T 7.7.7.7.E J :.9.9.9.g.g.g.9.5.I Y 9.j.j.j.j.h.7.T J 8.k.l.l.h.P K 7._ P 6.1.O.v.v.M.J.~.",
"X.! 7.:.Y K :.7.7.7.Y P 7.9.9.9.9.g.g.9.-.J ) g.j.j.j.j.h.5.J Y g.l.l.l.k.( K _ _ P 7.` ..H.b.F.J.].",
"=.B :.Y s g E 1.7.5.K Y 7.9.8.9.9.g.9.9.) J :.h.h.h.h.j.9._ H -.h.k.k.l.l.` J T T L 6.] $.b.I.~.B.).",
"9 | I J ` Y K -.7.-.H _ 9.7.8.9.9.9.9.7.T P 7.h.h.h.j.h.8.E J 1.j.k.k.l.l.8.J J g a ` ' 7 F.F.n.M.U.",
"b.4 d Y 7.:.h T -.W J 5.7.9.9.9.9.9.9.:.K Y 9.h.h.h.h.g.1.I Y 9.k.k.k.k.k.8.P s P u ( G 3 M.F.M.J.).",
"9 3 { Y 7.7.R J R I P 7.7.7.7.8.9.9.7.-.H _ 9.g.g.h.h.h.:.J E g.k.k.k.k.h.5.P P _ J J D n.P.P.B.P.).",
"< , * B _ 8.6.g J J R 7.7.8.7.8.8.8.7.E J :.g.g.g.g.h.g.:.H _ h.j.k.k.k.h.-.J ) _ J L x , 6 6 0 8 L.",
": @ + x R 6._ J U a R _ 7.7.7.8.8.8.7.T P 8.g.8.g.g.h.8._ J :.h.j.j.j.j.g._ J _ T Y ~   : , 3 > < N.",
"B.v.b.7 n ) P ) 7.( J ( 6.7.7.8.8.7.:.K R 8.g.g.g.g.g.8.) J 7.h.j.j.k.j.7.T J -.P ) ,.o.C.J.L.J.G.U.",
"m.0 9 3 ..V L ` 7.7.L K _ 7.7.7.7.7._ H ` 8.8.g.9.g.g.7.T P 7.h.h.h.j.h.5.P Y W J <.>.2 M.n.C.n.M.L.",
"J.M.0 5 , [ j _ 7.7.` J K E 5.7.7.7.R J 5.9.9.9.9.g.g.7.K Y 8.h.h.j.j.h.:.J Y T L g.G 3 m.0 B.J.J.K.",
"M.M.0 5 , ; [ U 6.8.6.J u T R _ 5.5.T P 7.8.8.9.g.8.g.6.P T 8.g.h.h.h.8._ H I J ` g. .n.G.F.G.J.N.J.",
"W.0 3 3 , , , v ( 6.( J ` J K T R T J R 7.8.8.8.8.g.8.7.J ) 8.h.h.h.g.7.E J J Y h.>.%.t.P.C.m.G.G.P.",
"K.m.M.7 9 v.5 1 n R K ` 8.` L H H K g W 7.7.8.8.8.9.9.:.J ) 9.h.g.g.7.7.T s L 1.k.#.n.0 J.B.B.N.N.K.",
"L.B.n.9 0 0 v.m.$.n J 1.7.7.7.R g Q h P :.7.7.7.7.8.7.5.J _ 7.8.8.7.7._ J H 6.j.>.r.C.B.S.J.m.m.t.U.",
"8 > : & + + + : 5 X r -.7.7.7.Y ! 7._ J T :.7.7.7.7.7._ J _ 7.7.7.6.) T a ( h.f.c m.< o O o O . O q ",
"i.D.B.n.t.5 5 B.N.7 o.B -.1.1.J :.7.7.! J R _ 5.7.5.5.R J E _ _ _ R T H J ] k.F $.U.B.B.J.N.L.B.F.].",
"A.J.n.m.M., < K.B.> , ..N ~ -.P 6.7.7.6.L J T T T E R K s P T Y T J H <.] ` ' ..9 U./.P.J.P.~.B.n.).",
"C.B.n.m.G.w 0 K.m., 5 , 1 } m h <.7.7.7.U g g J K J g J L L g g g g ` l.2.j ..B.P.`.).N.P.B.N.J.P.U.",
"m.t.0 B.L.K.m.T.S.5 5 5 5 5 *.| Q 1.8.4.L :.:.! s P ` <.7.1.<.:.` Y k.h.N $.B.B.P.{.(.P.P.N.G.N.G.P.",
"J.N.5 6 L.U.n.^.Q.0 9 0 v.=.n.m.+.B ^ ` L 8.8.8.L 5.8.7.7.8.9.h.j.! / A =.P.M.M.G.{.).P.~.G.P.N.F.).",
"L.n.8 w N.n.w /./.m.F.N.9 t.0 n.J.%.[ c n ^ 2.1.L d.h.j.j.j.k.d.] N +.H.N.F.~.F.F.{.).P.~.P.P.P.M.~.",
"L.w w B.C.B.P._.Q.G.C.C.N.m.B.C.S.b.0 9 4 O.b M N V ^ ^ ^ Z B v O.E.K.U.~.^.H.P.P.[.`.).S.B.U.I.I.).",
"q # q 6 6 w N.T.!.w < q w q y.6 J.w 6 6 3 5 5 3 i.%.% % % = - < m.'.m.n.0 t.8 0 M.(.J.n.M.8 n.w M.T."
};
